<svg width="322" height="110" viewBox="0 0 322 110" fill="none" xmlns="http://www.w3.org/2000/svg">
<g filter="url(#filter0_d)">
<rect x="10" width="302" height="90" rx="20" fill="white"/>
</g>
<path d="M143.219 35.9062C142.198 34.8021 141.125 33.9479 140 33.3438C138.875 32.7188 137.833 32.2708 136.875 32C135.917 31.7083 135.115 31.5417 134.469 31.5C133.823 31.4375 133.458 31.4062 133.375 31.4062C132.333 31.4062 131.49 31.5417 130.844 31.8125C130.198 32.0625 129.688 32.3958 129.312 32.8125C128.958 33.2083 128.708 33.6667 128.562 34.1875C128.438 34.6875 128.375 35.1979 128.375 35.7188C128.375 36.2188 128.427 36.7396 128.531 37.2812C128.656 37.8229 128.854 38.3229 129.125 38.7812C129.396 39.2188 129.76 39.5833 130.219 39.875C130.677 40.1667 131.26 40.3125 131.969 40.3125C132.01 40.3125 132.177 40.3125 132.469 40.3125C132.76 40.2917 133.125 40.2083 133.562 40.0625C134 39.8958 134.479 39.625 135 39.25C135.542 38.8542 136.083 38.2917 136.625 37.5625V50.2812C136.188 49.4896 135.708 48.8646 135.188 48.4062C134.667 47.9479 134.167 47.6146 133.688 47.4062C133.229 47.1771 132.812 47.0417 132.438 47C132.083 46.9375 131.844 46.9062 131.719 46.9062C131.031 46.9062 130.458 47.0208 130 47.25C129.562 47.4792 129.208 47.8021 128.938 48.2188C128.688 48.6146 128.51 49.1042 128.406 49.6875C128.302 50.25 128.25 50.875 128.25 51.5625C128.312 53.1667 128.469 54.8229 128.719 56.5312C128.823 57.2604 128.958 58.0312 129.125 58.8438C129.292 59.6562 129.5 60.5 129.75 61.375C130 62.2292 130.292 63.0938 130.625 63.9688C130.958 64.8229 131.344 65.6667 131.781 66.5C131.323 66.4792 130.823 66.4479 130.281 66.4062C129.802 66.3646 129.24 66.3333 128.594 66.3125C127.969 66.2917 127.26 66.2812 126.469 66.2812C125.531 66.2812 124.51 66.3125 123.406 66.375C122.302 66.4167 121.177 66.5 120.031 66.625C118.885 66.75 117.729 66.9167 116.562 67.125C115.396 67.3542 114.281 67.6354 113.219 67.9688C113.677 67.0312 114.073 65.8438 114.406 64.4062C114.74 62.9688 115.01 61.4375 115.219 59.8125C115.448 58.1875 115.625 56.5312 115.75 54.8438C115.875 53.1562 115.969 51.5938 116.031 50.1562C116.094 48.6979 116.125 47.4375 116.125 46.375C116.146 45.2917 116.156 44.5521 116.156 44.1562C116.156 44.0729 116.146 43.75 116.125 43.1875C116.125 42.625 116.115 41.8958 116.094 41C116.073 40.1042 116.042 39.0833 116 37.9375C115.958 36.7708 115.896 35.5625 115.812 34.3125C115.75 33.0625 115.656 31.8021 115.531 30.5312C115.427 29.2604 115.292 28.0625 115.125 26.9375C114.979 25.7917 114.802 24.7708 114.594 23.875C114.406 22.9583 114.177 22.2292 113.906 21.6875C115.906 22.1042 117.938 22.4062 120 22.5938C122.083 22.7604 124.135 22.8438 126.156 22.8438C128.469 22.8438 130.656 22.7708 132.719 22.625C134.781 22.4583 136.594 22.2708 138.156 22.0625C139.99 21.8333 141.677 21.5625 143.219 21.25V35.9062ZM180.281 67.375C178.99 67.2083 177.74 67.0938 176.531 67.0312C175.344 66.9688 174.135 66.9375 172.906 66.9375C169.594 66.9375 166.198 67.2604 162.719 67.9062C162.844 67.4062 162.979 66.9688 163.125 66.5938C163.292 66.1979 163.438 65.7708 163.562 65.3125C163.688 64.8333 163.792 64.2812 163.875 63.6562C163.958 63.0312 164 62.2292 164 61.25C164 60.25 163.927 59.3021 163.781 58.4062C163.635 57.4896 163.417 56.6875 163.125 56C162.833 55.2917 162.469 54.7292 162.031 54.3125C161.615 53.8958 161.125 53.6875 160.562 53.6875C159.938 53.6875 159.406 53.875 158.969 54.25C158.552 54.625 158.208 55.1354 157.938 55.7812C157.688 56.4271 157.5 57.1667 157.375 58C157.271 58.8333 157.219 59.7188 157.219 60.6562C157.219 61.5938 157.271 62.4062 157.375 63.0938C157.5 63.7604 157.635 64.3438 157.781 64.8438C157.948 65.3438 158.104 65.7917 158.25 66.1875C158.396 66.5625 158.5 66.9375 158.562 67.3125C157.125 67.1458 155.708 67.0208 154.312 66.9375C152.938 66.8542 151.562 66.8125 150.188 66.8125C148.812 66.8125 147.427 66.8542 146.031 66.9375C144.656 67.0208 143.229 67.1458 141.75 67.3125C143.042 63.5625 144.167 59.8438 145.125 56.1562C146.104 52.4688 146.938 48.7604 147.625 45.0312C148.312 41.3021 148.865 37.5312 149.281 33.7188C149.719 29.9062 150.042 26 150.25 22C151.792 22.2083 153.479 22.3646 155.312 22.4688C157.167 22.5521 159.062 22.5938 161 22.5938C162.646 22.5938 164.24 22.5521 165.781 22.4688C167.344 22.3854 168.781 22.2083 170.094 21.9375C170.24 25.9167 170.615 29.8333 171.219 33.6875C171.823 37.5417 172.573 41.3646 173.469 45.1562C174.385 48.9271 175.427 52.6667 176.594 56.375C177.76 60.0625 178.99 63.7292 180.281 67.375ZM162.781 43.125C162.74 42.7292 162.615 42.1458 162.406 41.375C162.219 40.7083 161.938 39.8333 161.562 38.75C161.188 37.6458 160.635 36.2292 159.906 34.5C159.74 35.5833 159.552 36.5521 159.344 37.4062C159.135 38.2396 158.938 39 158.75 39.6875C158.562 40.3542 158.396 40.9688 158.25 41.5312C158.125 42.0938 158.062 42.625 158.062 43.125C158.062 44.1667 158.302 44.9792 158.781 45.5625C159.281 46.125 159.833 46.4062 160.438 46.4062C161.083 46.4062 161.625 46.0938 162.062 45.4688C162.5 44.8438 162.74 44.0625 162.781 43.125ZM214.844 46.0625C214.844 48.0625 214.698 50 214.406 51.875C214.135 53.7292 213.708 55.4792 213.125 57.125C212.562 58.75 211.844 60.25 210.969 61.625C210.115 63 209.104 64.1979 207.938 65.2188C209.583 68.1979 211.844 70.9062 214.719 73.3438C210.969 74.5521 207.688 76.4688 204.875 79.0938C204.354 75.2396 203.396 71.6562 202 68.3438C201.271 68.5312 200.51 68.6771 199.719 68.7812C198.948 68.9062 198.146 68.9688 197.312 68.9688C194.333 68.9688 191.74 68.3646 189.531 67.1562C187.344 65.9688 185.521 64.3438 184.062 62.2812C182.625 60.1979 181.552 57.7708 180.844 55C180.135 52.2083 179.781 49.2292 179.781 46.0625C179.781 43.7292 180 41.4792 180.438 39.3125C180.875 37.1458 181.479 35.125 182.25 33.25C183.021 31.375 183.948 29.6667 185.031 28.125C186.115 26.5833 187.302 25.2708 188.594 24.1875C189.906 23.0833 191.292 22.2292 192.75 21.625C194.229 21.0208 195.75 20.7188 197.312 20.7188C199.938 20.7188 202.323 21.3646 204.469 22.6562C206.635 23.9271 208.479 25.6979 210 27.9688C211.542 30.2396 212.729 32.9167 213.562 36C214.417 39.0833 214.844 42.4375 214.844 46.0625ZM202.062 43.375C202.062 41.8125 201.938 40.375 201.688 39.0625C201.438 37.7292 201.094 36.5833 200.656 35.625C200.24 34.6458 199.74 33.8854 199.156 33.3438C198.573 32.7812 197.958 32.5 197.312 32.5C196.688 32.5 196.094 32.8333 195.531 33.5C194.969 34.1458 194.469 34.9896 194.031 36.0312C193.615 37.0729 193.281 38.2396 193.031 39.5312C192.781 40.8229 192.656 42.1042 192.656 43.375C192.656 44.6042 192.76 45.75 192.969 46.8125C193.198 47.8542 193.51 48.7604 193.906 49.5312C194.302 50.3021 194.781 50.9167 195.344 51.375C195.927 51.8125 196.583 52.0312 197.312 52.0312C198.021 52.0312 198.667 51.8125 199.25 51.375C199.854 50.9167 200.354 50.3021 200.75 49.5312C201.167 48.7604 201.49 47.8542 201.719 46.8125C201.948 45.75 202.062 44.6042 202.062 43.375Z" fill="#00AFBA"/>
<path d="M143.219 35.9062L142.484 36.5851L144.219 38.461V35.9062H143.219ZM140 33.3438L139.514 34.2179L139.521 34.2214L139.527 34.2247L140 33.3438ZM136.875 32L136.584 32.9567L136.593 32.9596L136.603 32.9623L136.875 32ZM134.469 31.5L134.372 32.4954L134.388 32.4969L134.404 32.4979L134.469 31.5ZM130.844 31.8125L131.205 32.7451L131.218 32.7401L131.23 32.7347L130.844 31.8125ZM129.312 32.8125L128.569 32.1435L128.567 32.1457L129.312 32.8125ZM128.562 34.1875L127.6 33.9179L127.596 33.9314L127.592 33.945L128.562 34.1875ZM128.531 37.2812L127.549 37.4701L127.553 37.4882L127.557 37.5061L128.531 37.2812ZM129.125 38.7812L128.264 39.29L128.269 39.2988L128.275 39.3076L129.125 38.7812ZM132.469 40.3125V41.3125H132.504L132.54 41.31L132.469 40.3125ZM133.562 40.0625L133.879 41.0112L133.899 41.0045L133.918 40.997L133.562 40.0625ZM135 39.25L135.584 40.0616L135.59 40.0574L135 39.25ZM136.625 37.5625H137.625V34.5394L135.822 36.9662L136.625 37.5625ZM136.625 50.2812L135.75 50.7649L137.625 50.2812H136.625ZM133.688 47.4062L133.24 48.3007L133.264 48.3126L133.289 48.3233L133.688 47.4062ZM132.438 47L132.264 47.9848L132.295 47.9903L132.327 47.9939L132.438 47ZM130 47.25L129.553 46.3556L129.544 46.3598L129.536 46.3642L130 47.25ZM128.938 48.2188L128.099 47.6737L128.092 47.6848L128.938 48.2188ZM128.406 49.6875L129.39 49.8696L129.391 49.8633L128.406 49.6875ZM128.25 51.5625H127.25V51.582L127.251 51.6014L128.25 51.5625ZM128.719 56.5312L129.709 56.3898L129.708 56.3865L128.719 56.5312ZM129.75 61.375L128.788 61.6497L128.79 61.6559L129.75 61.375ZM130.625 63.9688L129.69 64.3248L129.693 64.3323L130.625 63.9688ZM131.781 66.5L131.736 67.499L133.477 67.5781L132.667 66.0352L131.781 66.5ZM130.281 66.4062L130.195 67.4025L130.205 67.4033L130.281 66.4062ZM128.594 66.3125L128.56 67.3119L128.562 67.312L128.594 66.3125ZM123.406 66.375L123.444 67.3743L123.453 67.3739L123.463 67.3734L123.406 66.375ZM116.562 67.125L116.387 66.1406L116.378 66.1421L116.37 66.1438L116.562 67.125ZM113.219 67.9688L112.32 67.5295L111.299 69.6192L113.518 68.9229L113.219 67.9688ZM115.219 59.8125L114.228 59.6728L114.227 59.6853L115.219 59.8125ZM116.031 50.1562L117.03 50.1997L117.03 50.1991L116.031 50.1562ZM116.125 46.375L115.125 46.3558L115.125 46.3654V46.375H116.125ZM116.125 43.1875H115.125V43.206L115.126 43.2245L116.125 43.1875ZM116 37.9375L115.001 37.9732L115.001 37.9738L116 37.9375ZM115.812 34.3125L114.814 34.3624L114.814 34.3707L114.815 34.379L115.812 34.3125ZM115.531 30.5312L114.535 30.6129L114.535 30.621L114.536 30.6291L115.531 30.5312ZM115.125 26.9375L114.133 27.0638L114.134 27.0739L114.136 27.084L115.125 26.9375ZM114.594 23.875L113.614 24.0754L113.617 24.0885L113.62 24.1015L114.594 23.875ZM113.906 21.6875L114.11 20.7085L112.088 20.2872L113.012 22.1347L113.906 21.6875ZM120 22.5938L119.909 23.5897L119.92 23.5906L120 22.5938ZM132.719 22.625L132.789 23.6226L132.799 23.6218L132.719 22.625ZM138.156 22.0625L138.032 21.0702L138.024 21.0713L138.156 22.0625ZM143.219 21.25H144.219V20.027L143.02 20.2699L143.219 21.25ZM143.953 35.2274C142.87 34.0559 141.711 33.1277 140.473 32.4628L139.527 34.2247C140.539 34.7681 141.526 35.5482 142.484 36.5851L143.953 35.2274ZM140.486 32.4696C139.312 31.8173 138.198 31.3346 137.147 31.0377L136.603 32.9623C137.469 33.207 138.438 33.6202 139.514 34.2179L140.486 32.4696ZM137.166 31.0433C136.17 30.74 135.286 30.5506 134.533 30.5021L134.404 32.4979C134.943 32.5327 135.664 32.6767 136.584 32.9567L137.166 31.0433ZM134.565 30.5046C133.956 30.4457 133.521 30.4062 133.375 30.4062V32.4062C133.364 32.4062 133.425 32.4088 133.626 32.426C133.802 32.4412 134.051 32.4642 134.372 32.4954L134.565 30.5046ZM133.375 30.4062C132.259 30.4062 131.27 30.5494 130.457 30.8903L131.23 32.7347C131.709 32.5339 132.407 32.4062 133.375 32.4062V30.4062ZM130.483 30.8799C129.724 31.1735 129.071 31.586 128.569 32.1435L130.056 33.4815C130.304 33.2057 130.671 32.9515 131.205 32.7451L130.483 30.8799ZM128.567 32.1457C128.109 32.6577 127.786 33.2525 127.6 33.9179L129.525 34.4571C129.631 34.0808 129.807 33.759 130.058 33.4793L128.567 32.1457ZM127.592 33.945C127.447 34.5251 127.375 35.117 127.375 35.7188H129.375C129.375 35.2788 129.428 34.8499 129.533 34.43L127.592 33.945ZM127.375 35.7188C127.375 36.2882 127.434 36.8725 127.549 37.4701L129.513 37.0924C129.42 36.6067 129.375 36.1493 129.375 35.7188H127.375ZM127.557 37.5061C127.704 38.1432 127.939 38.7396 128.264 39.29L129.986 38.2725C129.77 37.9063 129.609 37.5026 129.506 37.0564L127.557 37.5061ZM128.275 39.3076C128.629 39.8802 129.104 40.3508 129.682 40.7187L130.756 39.0313C130.417 38.8159 130.162 38.5573 129.975 38.2549L128.275 39.3076ZM129.682 40.7187C130.343 41.1392 131.127 41.3125 131.969 41.3125V39.3125C131.394 39.3125 131.012 39.1942 130.756 39.0313L129.682 40.7187ZM131.969 41.3125C131.969 41.3125 131.969 41.3125 131.969 41.3125C131.969 41.3125 131.969 41.3125 131.969 41.3125C131.969 41.3125 131.969 41.3125 131.969 41.3125C131.97 41.3125 131.97 41.3125 131.97 41.3125C131.97 41.3125 131.97 41.3125 131.97 41.3125C131.97 41.3125 131.97 41.3125 131.97 41.3125C131.97 41.3125 131.97 41.3125 131.971 41.3125C131.971 41.3125 131.971 41.3125 131.971 41.3125C131.971 41.3125 131.971 41.3125 131.971 41.3125C131.971 41.3125 131.971 41.3125 131.971 41.3125C131.971 41.3125 131.972 41.3125 131.972 41.3125C131.972 41.3125 131.972 41.3125 131.972 41.3125C131.972 41.3125 131.972 41.3125 131.972 41.3125C131.972 41.3125 131.972 41.3125 131.972 41.3125C131.973 41.3125 131.973 41.3125 131.973 41.3125C131.973 41.3125 131.973 41.3125 131.973 41.3125C131.973 41.3125 131.973 41.3125 131.973 41.3125C131.973 41.3125 131.974 41.3125 131.974 41.3125C131.974 41.3125 131.974 41.3125 131.974 41.3125C131.974 41.3125 131.974 41.3125 131.974 41.3125C131.974 41.3125 131.974 41.3125 131.975 41.3125C131.975 41.3125 131.975 41.3125 131.975 41.3125C131.975 41.3125 131.975 41.3125 131.975 41.3125C131.975 41.3125 131.975 41.3125 131.975 41.3125C131.976 41.3125 131.976 41.3125 131.976 41.3125C131.976 41.3125 131.976 41.3125 131.976 41.3125C131.976 41.3125 131.976 41.3125 131.976 41.3125C131.976 41.3125 131.977 41.3125 131.977 41.3125C131.977 41.3125 131.977 41.3125 131.977 41.3125C131.977 41.3125 131.977 41.3125 131.977 41.3125C131.977 41.3125 131.978 41.3125 131.978 41.3125C131.978 41.3125 131.978 41.3125 131.978 41.3125C131.978 41.3125 131.978 41.3125 131.978 41.3125C131.978 41.3125 131.979 41.3125 131.979 41.3125C131.979 41.3125 131.979 41.3125 131.979 41.3125C131.979 41.3125 131.979 41.3125 131.979 41.3125C131.98 41.3125 131.98 41.3125 131.98 41.3125C131.98 41.3125 131.98 41.3125 131.98 41.3125C131.98 41.3125 131.98 41.3125 131.98 41.3125C131.981 41.3125 131.981 41.3125 131.981 41.3125C131.981 41.3125 131.981 41.3125 131.981 41.3125C131.981 41.3125 131.981 41.3125 131.982 41.3125C131.982 41.3125 131.982 41.3125 131.982 41.3125C131.982 41.3125 131.982 41.3125 131.982 41.3125C131.982 41.3125 131.983 41.3125 131.983 41.3125C131.983 41.3125 131.983 41.3125 131.983 41.3125C131.983 41.3125 131.983 41.3125 131.983 41.3125C131.984 41.3125 131.984 41.3125 131.984 41.3125C131.984 41.3125 131.984 41.3125 131.984 41.3125C131.984 41.3125 131.984 41.3125 131.985 41.3125C131.985 41.3125 131.985 41.3125 131.985 41.3125C131.985 41.3125 131.985 41.3125 131.985 41.3125C131.985 41.3125 131.986 41.3125 131.986 41.3125C131.986 41.3125 131.986 41.3125 131.986 41.3125C131.986 41.3125 131.986 41.3125 131.987 41.3125C131.987 41.3125 131.987 41.3125 131.987 41.3125C131.987 41.3125 131.987 41.3125 131.987 41.3125C131.987 41.3125 131.988 41.3125 131.988 41.3125C131.988 41.3125 131.988 41.3125 131.988 41.3125C131.988 41.3125 131.988 41.3125 131.989 41.3125C131.989 41.3125 131.989 41.3125 131.989 41.3125C131.989 41.3125 131.989 41.3125 131.989 41.3125C131.99 41.3125 131.99 41.3125 131.99 41.3125C131.99 41.3125 131.99 41.3125 131.99 41.3125C131.99 41.3125 131.991 41.3125 131.991 41.3125C131.991 41.3125 131.991 41.3125 131.991 41.3125C131.991 41.3125 131.991 41.3125 131.992 41.3125C131.992 41.3125 131.992 41.3125 131.992 41.3125C131.992 41.3125 131.992 41.3125 131.992 41.3125C131.993 41.3125 131.993 41.3125 131.993 41.3125C131.993 41.3125 131.993 41.3125 131.993 41.3125C131.993 41.3125 131.994 41.3125 131.994 41.3125C131.994 41.3125 131.994 41.3125 131.994 41.3125C131.994 41.3125 131.994 41.3125 131.995 41.3125C131.995 41.3125 131.995 41.3125 131.995 41.3125C131.995 41.3125 131.995 41.3125 131.996 41.3125C131.996 41.3125 131.996 41.3125 131.996 41.3125C131.996 41.3125 131.996 41.3125 131.996 41.3125C131.997 41.3125 131.997 41.3125 131.997 41.3125C131.997 41.3125 131.997 41.3125 131.997 41.3125C131.998 41.3125 131.998 41.3125 131.998 41.3125C131.998 41.3125 131.998 41.3125 131.998 41.3125C131.999 41.3125 131.999 41.3125 131.999 41.3125C131.999 41.3125 131.999 41.3125 131.999 41.3125C132 41.3125 132 41.3125 132 41.3125C132 41.3125 132 41.3125 132 41.3125C132 41.3125 132.001 41.3125 132.001 41.3125C132.001 41.3125 132.001 41.3125 132.001 41.3125C132.001 41.3125 132.002 41.3125 132.002 41.3125C132.002 41.3125 132.002 41.3125 132.002 41.3125C132.002 41.3125 132.003 41.3125 132.003 41.3125C132.003 41.3125 132.003 41.3125 132.003 41.3125C132.003 41.3125 132.004 41.3125 132.004 41.3125C132.004 41.3125 132.004 41.3125 132.004 41.3125C132.005 41.3125 132.005 41.3125 132.005 41.3125C132.005 41.3125 132.005 41.3125 132.005 41.3125C132.006 41.3125 132.006 41.3125 132.006 41.3125C132.006 41.3125 132.006 41.3125 132.006 41.3125C132.007 41.3125 132.007 41.3125 132.007 41.3125C132.007 41.3125 132.007 41.3125 132.007 41.3125C132.008 41.3125 132.008 41.3125 132.008 41.3125C132.008 41.3125 132.008 41.3125 132.009 41.3125C132.009 41.3125 132.009 41.3125 132.009 41.3125C132.009 41.3125 132.009 41.3125 132.01 41.3125C132.01 41.3125 132.01 41.3125 132.01 41.3125C132.01 41.3125 132.011 41.3125 132.011 41.3125C132.011 41.3125 132.011 41.3125 132.011 41.3125C132.011 41.3125 132.012 41.3125 132.012 41.3125C132.012 41.3125 132.012 41.3125 132.012 41.3125C132.013 41.3125 132.013 41.3125 132.013 41.3125C132.013 41.3125 132.013 41.3125 132.013 41.3125C132.014 41.3125 132.014 41.3125 132.014 41.3125C132.014 41.3125 132.014 41.3125 132.015 41.3125C132.015 41.3125 132.015 41.3125 132.015 41.3125C132.015 41.3125 132.016 41.3125 132.016 41.3125C132.016 41.3125 132.016 41.3125 132.016 41.3125C132.017 41.3125 132.017 41.3125 132.017 41.3125C132.017 41.3125 132.017 41.3125 132.017 41.3125C132.018 41.3125 132.018 41.3125 132.018 41.3125C132.018 41.3125 132.018 41.3125 132.019 41.3125C132.019 41.3125 132.019 41.3125 132.019 41.3125C132.019 41.3125 132.02 41.3125 132.02 41.3125C132.02 41.3125 132.02 41.3125 132.02 41.3125C132.021 41.3125 132.021 41.3125 132.021 41.3125C132.021 41.3125 132.021 41.3125 132.022 41.3125C132.022 41.3125 132.022 41.3125 132.022 41.3125C132.022 41.3125 132.023 41.3125 132.023 41.3125C132.023 41.3125 132.023 41.3125 132.023 41.3125C132.024 41.3125 132.024 41.3125 132.024 41.3125C132.024 41.3125 132.024 41.3125 132.025 41.3125C132.025 41.3125 132.025 41.3125 132.025 41.3125C132.025 41.3125 132.026 41.3125 132.026 41.3125C132.026 41.3125 132.026 41.3125 132.027 41.3125C132.027 41.3125 132.027 41.3125 132.027 41.3125C132.027 41.3125 132.028 41.3125 132.028 41.3125C132.028 41.3125 132.028 41.3125 132.028 41.3125C132.029 41.3125 132.029 41.3125 132.029 41.3125C132.029 41.3125 132.029 41.3125 132.03 41.3125C132.03 41.3125 132.03 41.3125 132.03 41.3125C132.031 41.3125 132.031 41.3125 132.031 41.3125C132.031 41.3125 132.031 41.3125 132.032 41.3125C132.032 41.3125 132.032 41.3125 132.032 41.3125C132.032 41.3125 132.033 41.3125 132.033 41.3125C132.033 41.3125 132.033 41.3125 132.034 41.3125C132.034 41.3125 132.034 41.3125 132.034 41.3125C132.034 41.3125 132.035 41.3125 132.035 41.3125C132.035 41.3125 132.035 41.3125 132.036 41.3125C132.036 41.3125 132.036 41.3125 132.036 41.3125C132.036 41.3125 132.037 41.3125 132.037 41.3125C132.037 41.3125 132.037 41.3125 132.038 41.3125C132.038 41.3125 132.038 41.3125 132.038 41.3125C132.038 41.3125 132.039 41.3125 132.039 41.3125C132.039 41.3125 132.039 41.3125 132.04 41.3125C132.04 41.3125 132.04 41.3125 132.04 41.3125C132.041 41.3125 132.041 41.3125 132.041 41.3125C132.041 41.3125 132.041 41.3125 132.042 41.3125C132.042 41.3125 132.042 41.3125 132.042 41.3125C132.043 41.3125 132.043 41.3125 132.043 41.3125C132.043 41.3125 132.044 41.3125 132.044 41.3125C132.044 41.3125 132.044 41.3125 132.044 41.3125C132.045 41.3125 132.045 41.3125 132.045 41.3125C132.045 41.3125 132.046 41.3125 132.046 41.3125C132.046 41.3125 132.046 41.3125 132.047 41.3125C132.047 41.3125 132.047 41.3125 132.047 41.3125C132.048 41.3125 132.048 41.3125 132.048 41.3125C132.048 41.3125 132.048 41.3125 132.049 41.3125C132.049 41.3125 132.049 41.3125 132.049 41.3125C132.05 41.3125 132.05 41.3125 132.05 41.3125C132.05 41.3125 132.051 41.3125 132.051 41.3125C132.051 41.3125 132.051 41.3125 132.052 41.3125C132.052 41.3125 132.052 41.3125 132.052 41.3125C132.053 41.3125 132.053 41.3125 132.053 41.3125C132.053 41.3125 132.054 41.3125 132.054 41.3125C132.054 41.3125 132.054 41.3125 132.055 41.3125C132.055 41.3125 132.055 41.3125 132.055 41.3125C132.056 41.3125 132.056 41.3125 132.056 41.3125C132.056 41.3125 132.057 41.3125 132.057 41.3125C132.057 41.3125 132.057 41.3125 132.058 41.3125C132.058 41.3125 132.058 41.3125 132.058 41.3125C132.059 41.3125 132.059 41.3125 132.059 41.3125C132.059 41.3125 132.06 41.3125 132.06 41.3125C132.06 41.3125 132.06 41.3125 132.061 41.3125C132.061 41.3125 132.061 41.3125 132.061 41.3125C132.062 41.3125 132.062 41.3125 132.062 41.3125C132.062 41.3125 132.063 41.3125 132.063 41.3125C132.063 41.3125 132.063 41.3125 132.064 41.3125C132.064 41.3125 132.064 41.3125 132.064 41.3125C132.065 41.3125 132.065 41.3125 132.065 41.3125C132.065 41.3125 132.066 41.3125 132.066 41.3125C132.066 41.3125 132.067 41.3125 132.067 41.3125C132.067 41.3125 132.067 41.3125 132.068 41.3125C132.068 41.3125 132.068 41.3125 132.068 41.3125C132.069 41.3125 132.069 41.3125 132.069 41.3125C132.069 41.3125 132.07 41.3125 132.07 41.3125C132.07 41.3125 132.07 41.3125 132.071 41.3125C132.071 41.3125 132.071 41.3125 132.072 41.3125C132.072 41.3125 132.072 41.3125 132.072 41.3125C132.073 41.3125 132.073 41.3125 132.073 41.3125C132.073 41.3125 132.074 41.3125 132.074 41.3125C132.074 41.3125 132.075 41.3125 132.075 41.3125C132.075 41.3125 132.075 41.3125 132.076 41.3125C132.076 41.3125 132.076 41.3125 132.076 41.3125C132.077 41.3125 132.077 41.3125 132.077 41.3125C132.078 41.3125 132.078 41.3125 132.078 41.3125C132.078 41.3125 132.079 41.3125 132.079 41.3125C132.079 41.3125 132.079 41.3125 132.08 41.3125C132.08 41.3125 132.08 41.3125 132.081 41.3125C132.081 41.3125 132.081 41.3125 132.081 41.3125C132.082 41.3125 132.082 41.3125 132.082 41.3125C132.083 41.3125 132.083 41.3125 132.083 41.3125C132.083 41.3125 132.084 41.3125 132.084 41.3125C132.084 41.3125 132.085 41.3125 132.085 41.3125C132.085 41.3125 132.085 41.3125 132.086 41.3125C132.086 41.3125 132.086 41.3125 132.087 41.3125C132.087 41.3125 132.087 41.3125 132.087 41.3125C132.088 41.3125 132.088 41.3125 132.088 41.3125C132.089 41.3125 132.089 41.3125 132.089 41.3125C132.089 41.3125 132.09 41.3125 132.09 41.3125C132.09 41.3125 132.091 41.3125 132.091 41.3125C132.091 41.3125 132.091 41.3125 132.092 41.3125C132.092 41.3125 132.092 41.3125 132.093 41.3125C132.093 41.3125 132.093 41.3125 132.093 41.3125C132.094 41.3125 132.094 41.3125 132.094 41.3125C132.095 41.3125 132.095 41.3125 132.095 41.3125C132.096 41.3125 132.096 41.3125 132.096 41.3125C132.096 41.3125 132.097 41.3125 132.097 41.3125C132.097 41.3125 132.098 41.3125 132.098 41.3125C132.098 41.3125 132.098 41.3125 132.099 41.3125C132.099 41.3125 132.099 41.3125 132.1 41.3125C132.1 41.3125 132.1 41.3125 132.101 41.3125C132.101 41.3125 132.101 41.3125 132.101 41.3125C132.102 41.3125 132.102 41.3125 132.102 41.3125C132.103 41.3125 132.103 41.3125 132.103 41.3125C132.104 41.3125 132.104 41.3125 132.104 41.3125C132.105 41.3125 132.105 41.3125 132.105 41.3125C132.105 41.3125 132.106 41.3125 132.106 41.3125C132.106 41.3125 132.107 41.3125 132.107 41.3125C132.107 41.3125 132.108 41.3125 132.108 41.3125C132.108 41.3125 132.109 41.3125 132.109 41.3125C132.109 41.3125 132.109 41.3125 132.11 41.3125C132.11 41.3125 132.11 41.3125 132.111 41.3125C132.111 41.3125 132.111 41.3125 132.112 41.3125C132.112 41.3125 132.112 41.3125 132.113 41.3125C132.113 41.3125 132.113 41.3125 132.113 41.3125C132.114 41.3125 132.114 41.3125 132.114 41.3125C132.115 41.3125 132.115 41.3125 132.115 41.3125C132.116 41.3125 132.116 41.3125 132.116 41.3125C132.117 41.3125 132.117 41.3125 132.117 41.3125C132.118 41.3125 132.118 41.3125 132.118 41.3125C132.119 41.3125 132.119 41.3125 132.119 41.3125C132.12 41.3125 132.12 41.3125 132.12 41.3125C132.12 41.3125 132.121 41.3125 132.121 41.3125C132.121 41.3125 132.122 41.3125 132.122 41.3125C132.122 41.3125 132.123 41.3125 132.123 41.3125C132.123 41.3125 132.124 41.3125 132.124 41.3125C132.124 41.3125 132.125 41.3125 132.125 41.3125C132.125 41.3125 132.126 41.3125 132.126 41.3125C132.126 41.3125 132.127 41.3125 132.127 41.3125C132.127 41.3125 132.128 41.3125 132.128 41.3125C132.128 41.3125 132.129 41.3125 132.129 41.3125C132.129 41.3125 132.13 41.3125 132.13 41.3125C132.13 41.3125 132.131 41.3125 132.131 41.3125C132.131 41.3125 132.132 41.3125 132.132 41.3125C132.132 41.3125 132.133 41.3125 132.133 41.3125C132.133 41.3125 132.134 41.3125 132.134 41.3125C132.134 41.3125 132.135 41.3125 132.135 41.3125C132.135 41.3125 132.136 41.3125 132.136 41.3125C132.136 41.3125 132.137 41.3125 132.137 41.3125C132.137 41.3125 132.138 41.3125 132.138 41.3125C132.138 41.3125 132.139 41.3125 132.139 41.3125C132.139 41.3125 132.14 41.3125 132.14 41.3125C132.14 41.3125 132.141 41.3125 132.141 41.3125C132.141 41.3125 132.142 41.3125 132.142 41.3125C132.142 41.3125 132.143 41.3125 132.143 41.3125C132.143 41.3125 132.144 41.3125 132.144 41.3125C132.144 41.3125 132.145 41.3125 132.145 41.3125C132.145 41.3125 132.146 41.3125 132.146 41.3125C132.146 41.3125 132.147 41.3125 132.147 41.3125C132.148 41.3125 132.148 41.3125 132.148 41.3125C132.149 41.3125 132.149 41.3125 132.149 41.3125C132.15 41.3125 132.15 41.3125 132.15 41.3125C132.151 41.3125 132.151 41.3125 132.151 41.3125C132.152 41.3125 132.152 41.3125 132.152 41.3125C132.153 41.3125 132.153 41.3125 132.153 41.3125C132.154 41.3125 132.154 41.3125 132.155 41.3125C132.155 41.3125 132.155 41.3125 132.156 41.3125C132.156 41.3125 132.156 41.3125 132.157 41.3125C132.157 41.3125 132.157 41.3125 132.158 41.3125C132.158 41.3125 132.158 41.3125 132.159 41.3125C132.159 41.3125 132.159 41.3125 132.16 41.3125C132.16 41.3125 132.161 41.3125 132.161 41.3125C132.161 41.3125 132.162 41.3125 132.162 41.3125C132.162 41.3125 132.163 41.3125 132.163 41.3125C132.163 41.3125 132.164 41.3125 132.164 41.3125C132.165 41.3125 132.165 41.3125 132.165 41.3125C132.166 41.3125 132.166 41.3125 132.166 41.3125C132.167 41.3125 132.167 41.3125 132.167 41.3125C132.168 41.3125 132.168 41.3125 132.169 41.3125C132.169 41.3125 132.169 41.3125 132.17 41.3125C132.17 41.3125 132.17 41.3125 132.171 41.3125C132.171 41.3125 132.171 41.3125 132.172 41.3125C132.172 41.3125 132.173 41.3125 132.173 41.3125C132.173 41.3125 132.174 41.3125 132.174 41.3125C132.174 41.3125 132.175 41.3125 132.175 41.3125C132.176 41.3125 132.176 41.3125 132.176 41.3125C132.177 41.3125 132.177 41.3125 132.177 41.3125C132.178 41.3125 132.178 41.3125 132.179 41.3125C132.179 41.3125 132.179 41.3125 132.18 41.3125C132.18 41.3125 132.18 41.3125 132.181 41.3125C132.181 41.3125 132.182 41.3125 132.182 41.3125C132.182 41.3125 132.183 41.3125 132.183 41.3125C132.183 41.3125 132.184 41.3125 132.184 41.3125C132.185 41.3125 132.185 41.3125 132.185 41.3125C132.186 41.3125 132.186 41.3125 132.186 41.3125C132.187 41.3125 132.187 41.3125 132.188 41.3125C132.188 41.3125 132.188 41.3125 132.189 41.3125C132.189 41.3125 132.19 41.3125 132.19 41.3125C132.19 41.3125 132.191 41.3125 132.191 41.3125C132.191 41.3125 132.192 41.3125 132.192 41.3125C132.193 41.3125 132.193 41.3125 132.193 41.3125C132.194 41.3125 132.194 41.3125 132.195 41.3125C132.195 41.3125 132.195 41.3125 132.196 41.3125C132.196 41.3125 132.196 41.3125 132.197 41.3125C132.197 41.3125 132.198 41.3125 132.198 41.3125C132.198 41.3125 132.199 41.3125 132.199 41.3125C132.2 41.3125 132.2 41.3125 132.2 41.3125C132.201 41.3125 132.201 41.3125 132.202 41.3125C132.202 41.3125 132.202 41.3125 132.203 41.3125C132.203 41.3125 132.204 41.3125 132.204 41.3125C132.204 41.3125 132.205 41.3125 132.205 41.3125C132.205 41.3125 132.206 41.3125 132.206 41.3125C132.207 41.3125 132.207 41.3125 132.207 41.3125C132.208 41.3125 132.208 41.3125 132.209 41.3125C132.209 41.3125 132.209 41.3125 132.21 41.3125C132.21 41.3125 132.211 41.3125 132.211 41.3125C132.211 41.3125 132.212 41.3125 132.212 41.3125C132.213 41.3125 132.213 41.3125 132.213 41.3125C132.214 41.3125 132.214 41.3125 132.215 41.3125C132.215 41.3125 132.216 41.3125 132.216 41.3125C132.216 41.3125 132.217 41.3125 132.217 41.3125C132.218 41.3125 132.218 41.3125 132.218 41.3125C132.219 41.3125 132.219 41.3125 132.22 41.3125C132.22 41.3125 132.22 41.3125 132.221 41.3125C132.221 41.3125 132.222 41.3125 132.222 41.3125C132.222 41.3125 132.223 41.3125 132.223 41.3125C132.224 41.3125 132.224 41.3125 132.224 41.3125C132.225 41.3125 132.225 41.3125 132.226 41.3125C132.226 41.3125 132.227 41.3125 132.227 41.3125C132.227 41.3125 132.228 41.3125 132.228 41.3125C132.229 41.3125 132.229 41.3125 132.229 41.3125C132.23 41.3125 132.23 41.3125 132.231 41.3125C132.231 41.3125 132.232 41.3125 132.232 41.3125C132.232 41.3125 132.233 41.3125 132.233 41.3125C132.234 41.3125 132.234 41.3125 132.234 41.3125C132.235 41.3125 132.235 41.3125 132.236 41.3125C132.236 41.3125 132.237 41.3125 132.237 41.3125C132.237 41.3125 132.238 41.3125 132.238 41.3125C132.239 41.3125 132.239 41.3125 132.239 41.3125C132.24 41.3125 132.24 41.3125 132.241 41.3125C132.241 41.3125 132.242 41.3125 132.242 41.3125C132.242 41.3125 132.243 41.3125 132.243 41.3125C132.244 41.3125 132.244 41.3125 132.245 41.3125C132.245 41.3125 132.245 41.3125 132.246 41.3125C132.246 41.3125 132.247 41.3125 132.247 41.3125C132.248 41.3125 132.248 41.3125 132.248 41.3125C132.249 41.3125 132.249 41.3125 132.25 41.3125C132.25 41.3125 132.251 41.3125 132.251 41.3125C132.251 41.3125 132.252 41.3125 132.252 41.3125C132.253 41.3125 132.253 41.3125 132.254 41.3125C132.254 41.3125 132.254 41.3125 132.255 41.3125C132.255 41.3125 132.256 41.3125 132.256 41.3125C132.257 41.3125 132.257 41.3125 132.258 41.3125C132.258 41.3125 132.258 41.3125 132.259 41.3125C132.259 41.3125 132.26 41.3125 132.26 41.3125C132.261 41.3125 132.261 41.3125 132.261 41.3125C132.262 41.3125 132.262 41.3125 132.263 41.3125C132.263 41.3125 132.264 41.3125 132.264 41.3125C132.265 41.3125 132.265 41.3125 132.265 41.3125C132.266 41.3125 132.266 41.3125 132.267 41.3125C132.267 41.3125 132.268 41.3125 132.268 41.3125C132.269 41.3125 132.269 41.3125 132.269 41.3125C132.27 41.3125 132.27 41.3125 132.271 41.3125C132.271 41.3125 132.272 41.3125 132.272 41.3125C132.273 41.3125 132.273 41.3125 132.273 41.3125C132.274 41.3125 132.274 41.3125 132.275 41.3125C132.275 41.3125 132.276 41.3125 132.276 41.3125C132.277 41.3125 132.277 41.3125 132.277 41.3125C132.278 41.3125 132.278 41.3125 132.279 41.3125C132.279 41.3125 132.28 41.3125 132.28 41.3125C132.281 41.3125 132.281 41.3125 132.282 41.3125C132.282 41.3125 132.282 41.3125 132.283 41.3125C132.283 41.3125 132.284 41.3125 132.284 41.3125C132.285 41.3125 132.285 41.3125 132.286 41.3125C132.286 41.3125 132.287 41.3125 132.287 41.3125C132.287 41.3125 132.288 41.3125 132.288 41.3125C132.289 41.3125 132.289 41.3125 132.29 41.3125C132.29 41.3125 132.291 41.3125 132.291 41.3125C132.292 41.3125 132.292 41.3125 132.293 41.3125C132.293 41.3125 132.293 41.3125 132.294 41.3125C132.294 41.3125 132.295 41.3125 132.295 41.3125C132.296 41.3125 132.296 41.3125 132.297 41.3125C132.297 41.3125 132.298 41.3125 132.298 41.3125C132.299 41.3125 132.299 41.3125 132.299 41.3125C132.3 41.3125 132.3 41.3125 132.301 41.3125C132.301 41.3125 132.302 41.3125 132.302 41.3125C132.303 41.3125 132.303 41.3125 132.304 41.3125C132.304 41.3125 132.305 41.3125 132.305 41.3125C132.306 41.3125 132.306 41.3125 132.306 41.3125C132.307 41.3125 132.307 41.3125 132.308 41.3125C132.308 41.3125 132.309 41.3125 132.309 41.3125C132.31 41.3125 132.31 41.3125 132.311 41.3125C132.311 41.3125 132.312 41.3125 132.312 41.3125C132.313 41.3125 132.313 41.3125 132.314 41.3125C132.314 41.3125 132.315 41.3125 132.315 41.3125C132.315 41.3125 132.316 41.3125 132.316 41.3125C132.317 41.3125 132.317 41.3125 132.318 41.3125C132.318 41.3125 132.319 41.3125 132.319 41.3125C132.32 41.3125 132.32 41.3125 132.321 41.3125C132.321 41.3125 132.322 41.3125 132.322 41.3125C132.323 41.3125 132.323 41.3125 132.324 41.3125C132.324 41.3125 132.325 41.3125 132.325 41.3125C132.326 41.3125 132.326 41.3125 132.327 41.3125C132.327 41.3125 132.327 41.3125 132.328 41.3125C132.328 41.3125 132.329 41.3125 132.329 41.3125C132.33 41.3125 132.33 41.3125 132.331 41.3125C132.331 41.3125 132.332 41.3125 132.332 41.3125C132.333 41.3125 132.333 41.3125 132.334 41.3125C132.334 41.3125 132.335 41.3125 132.335 41.3125C132.336 41.3125 132.336 41.3125 132.337 41.3125C132.337 41.3125 132.338 41.3125 132.338 41.3125C132.339 41.3125 132.339 41.3125 132.34 41.3125C132.34 41.3125 132.341 41.3125 132.341 41.3125C132.342 41.3125 132.342 41.3125 132.343 41.3125C132.343 41.3125 132.344 41.3125 132.344 41.3125C132.345 41.3125 132.345 41.3125 132.346 41.3125C132.346 41.3125 132.347 41.3125 132.347 41.3125C132.348 41.3125 132.348 41.3125 132.349 41.3125C132.349 41.3125 132.35 41.3125 132.35 41.3125C132.351 41.3125 132.351 41.3125 132.352 41.3125C132.352 41.3125 132.353 41.3125 132.353 41.3125C132.354 41.3125 132.354 41.3125 132.355 41.3125C132.355 41.3125 132.356 41.3125 132.356 41.3125C132.357 41.3125 132.357 41.3125 132.358 41.3125C132.358 41.3125 132.359 41.3125 132.359 41.3125C132.36 41.3125 132.36 41.3125 132.361 41.3125C132.361 41.3125 132.362 41.3125 132.362 41.3125C132.363 41.3125 132.363 41.3125 132.364 41.3125C132.364 41.3125 132.365 41.3125 132.365 41.3125C132.366 41.3125 132.366 41.3125 132.367 41.3125C132.367 41.3125 132.368 41.3125 132.368 41.3125C132.369 41.3125 132.369 41.3125 132.37 41.3125C132.37 41.3125 132.371 41.3125 132.371 41.3125C132.372 41.3125 132.372 41.3125 132.373 41.3125C132.373 41.3125 132.374 41.3125 132.374 41.3125C132.375 41.3125 132.375 41.3125 132.376 41.3125C132.377 41.3125 132.377 41.3125 132.378 41.3125C132.378 41.3125 132.379 41.3125 132.379 41.3125C132.38 41.3125 132.38 41.3125 132.381 41.3125C132.381 41.3125 132.382 41.3125 132.382 41.3125C132.383 41.3125 132.383 41.3125 132.384 41.3125C132.384 41.3125 132.385 41.3125 132.385 41.3125C132.386 41.3125 132.386 41.3125 132.387 41.3125C132.387 41.3125 132.388 41.3125 132.388 41.3125C132.389 41.3125 132.389 41.3125 132.39 41.3125C132.391 41.3125 132.391 41.3125 132.392 41.3125C132.392 41.3125 132.393 41.3125 132.393 41.3125C132.394 41.3125 132.394 41.3125 132.395 41.3125C132.395 41.3125 132.396 41.3125 132.396 41.3125C132.397 41.3125 132.397 41.3125 132.398 41.3125C132.398 41.3125 132.399 41.3125 132.399 41.3125C132.4 41.3125 132.401 41.3125 132.401 41.3125C132.402 41.3125 132.402 41.3125 132.403 41.3125C132.403 41.3125 132.404 41.3125 132.404 41.3125C132.405 41.3125 132.405 41.3125 132.406 41.3125C132.406 41.3125 132.407 41.3125 132.407 41.3125C132.408 41.3125 132.409 41.3125 132.409 41.3125C132.41 41.3125 132.41 41.3125 132.411 41.3125C132.411 41.3125 132.412 41.3125 132.412 41.3125C132.413 41.3125 132.413 41.3125 132.414 41.3125C132.414 41.3125 132.415 41.3125 132.416 41.3125C132.416 41.3125 132.417 41.3125 132.417 41.3125C132.418 41.3125 132.418 41.3125 132.419 41.3125C132.419 41.3125 132.42 41.3125 132.42 41.3125C132.421 41.3125 132.421 41.3125 132.422 41.3125C132.423 41.3125 132.423 41.3125 132.424 41.3125C132.424 41.3125 132.425 41.3125 132.425 41.3125C132.426 41.3125 132.426 41.3125 132.427 41.3125C132.427 41.3125 132.428 41.3125 132.429 41.3125C132.429 41.3125 132.43 41.3125 132.43 41.3125C132.431 41.3125 132.431 41.3125 132.432 41.3125C132.432 41.3125 132.433 41.3125 132.433 41.3125C132.434 41.3125 132.435 41.3125 132.435 41.3125C132.436 41.3125 132.436 41.3125 132.437 41.3125C132.437 41.3125 132.438 41.3125 132.438 41.3125C132.439 41.3125 132.44 41.3125 132.44 41.3125C132.441 41.3125 132.441 41.3125 132.442 41.3125C132.442 41.3125 132.443 41.3125 132.443 41.3125C132.444 41.3125 132.445 41.3125 132.445 41.3125C132.446 41.3125 132.446 41.3125 132.447 41.3125C132.447 41.3125 132.448 41.3125 132.448 41.3125C132.449 41.3125 132.45 41.3125 132.45 41.3125C132.451 41.3125 132.451 41.3125 132.452 41.3125C132.452 41.3125 132.453 41.3125 132.453 41.3125C132.454 41.3125 132.455 41.3125 132.455 41.3125C132.456 41.3125 132.456 41.3125 132.457 41.3125C132.457 41.3125 132.458 41.3125 132.459 41.3125C132.459 41.3125 132.46 41.3125 132.46 41.3125C132.461 41.3125 132.461 41.3125 132.462 41.3125C132.463 41.3125 132.463 41.3125 132.464 41.3125C132.464 41.3125 132.465 41.3125 132.465 41.3125C132.466 41.3125 132.466 41.3125 132.467 41.3125C132.468 41.3125 132.468 41.3125 132.469 41.3125V39.3125C132.468 39.3125 132.468 39.3125 132.467 39.3125C132.466 39.3125 132.466 39.3125 132.465 39.3125C132.465 39.3125 132.464 39.3125 132.464 39.3125C132.463 39.3125 132.463 39.3125 132.462 39.3125C132.461 39.3125 132.461 39.3125 132.46 39.3125C132.46 39.3125 132.459 39.3125 132.459 39.3125C132.458 39.3125 132.457 39.3125 132.457 39.3125C132.456 39.3125 132.456 39.3125 132.455 39.3125C132.455 39.3125 132.454 39.3125 132.453 39.3125C132.453 39.3125 132.452 39.3125 132.452 39.3125C132.451 39.3125 132.451 39.3125 132.45 39.3125C132.45 39.3125 132.449 39.3125 132.448 39.3125C132.448 39.3125 132.447 39.3125 132.447 39.3125C132.446 39.3125 132.446 39.3125 132.445 39.3125C132.445 39.3125 132.444 39.3125 132.443 39.3125C132.443 39.3125 132.442 39.3125 132.442 39.3125C132.441 39.3125 132.441 39.3125 132.44 39.3125C132.44 39.3125 132.439 39.3125 132.438 39.3125C132.438 39.3125 132.437 39.3125 132.437 39.3125C132.436 39.3125 132.436 39.3125 132.435 39.3125C132.435 39.3125 132.434 39.3125 132.433 39.3125C132.433 39.3125 132.432 39.3125 132.432 39.3125C132.431 39.3125 132.431 39.3125 132.43 39.3125C132.43 39.3125 132.429 39.3125 132.429 39.3125C132.428 39.3125 132.427 39.3125 132.427 39.3125C132.426 39.3125 132.426 39.3125 132.425 39.3125C132.425 39.3125 132.424 39.3125 132.424 39.3125C132.423 39.3125 132.423 39.3125 132.422 39.3125C132.421 39.3125 132.421 39.3125 132.42 39.3125C132.42 39.3125 132.419 39.3125 132.419 39.3125C132.418 39.3125 132.418 39.3125 132.417 39.3125C132.417 39.3125 132.416 39.3125 132.416 39.3125C132.415 39.3125 132.414 39.3125 132.414 39.3125C132.413 39.3125 132.413 39.3125 132.412 39.3125C132.412 39.3125 132.411 39.3125 132.411 39.3125C132.41 39.3125 132.41 39.3125 132.409 39.3125C132.409 39.3125 132.408 39.3125 132.407 39.3125C132.407 39.3125 132.406 39.3125 132.406 39.3125C132.405 39.3125 132.405 39.3125 132.404 39.3125C132.404 39.3125 132.403 39.3125 132.403 39.3125C132.402 39.3125 132.402 39.3125 132.401 39.3125C132.401 39.3125 132.4 39.3125 132.399 39.3125C132.399 39.3125 132.398 39.3125 132.398 39.3125C132.397 39.3125 132.397 39.3125 132.396 39.3125C132.396 39.3125 132.395 39.3125 132.395 39.3125C132.394 39.3125 132.394 39.3125 132.393 39.3125C132.393 39.3125 132.392 39.3125 132.392 39.3125C132.391 39.3125 132.391 39.3125 132.39 39.3125C132.389 39.3125 132.389 39.3125 132.388 39.3125C132.388 39.3125 132.387 39.3125 132.387 39.3125C132.386 39.3125 132.386 39.3125 132.385 39.3125C132.385 39.3125 132.384 39.3125 132.384 39.3125C132.383 39.3125 132.383 39.3125 132.382 39.3125C132.382 39.3125 132.381 39.3125 132.381 39.3125C132.38 39.3125 132.38 39.3125 132.379 39.3125C132.379 39.3125 132.378 39.3125 132.378 39.3125C132.377 39.3125 132.377 39.3125 132.376 39.3125C132.375 39.3125 132.375 39.3125 132.374 39.3125C132.374 39.3125 132.373 39.3125 132.373 39.3125C132.372 39.3125 132.372 39.3125 132.371 39.3125C132.371 39.3125 132.37 39.3125 132.37 39.3125C132.369 39.3125 132.369 39.3125 132.368 39.3125C132.368 39.3125 132.367 39.3125 132.367 39.3125C132.366 39.3125 132.366 39.3125 132.365 39.3125C132.365 39.3125 132.364 39.3125 132.364 39.3125C132.363 39.3125 132.363 39.3125 132.362 39.3125C132.362 39.3125 132.361 39.3125 132.361 39.3125C132.36 39.3125 132.36 39.3125 132.359 39.3125C132.359 39.3125 132.358 39.3125 132.358 39.3125C132.357 39.3125 132.357 39.3125 132.356 39.3125C132.356 39.3125 132.355 39.3125 132.355 39.3125C132.354 39.3125 132.354 39.3125 132.353 39.3125C132.353 39.3125 132.352 39.3125 132.352 39.3125C132.351 39.3125 132.351 39.3125 132.35 39.3125C132.35 39.3125 132.349 39.3125 132.349 39.3125C132.348 39.3125 132.348 39.3125 132.347 39.3125C132.347 39.3125 132.346 39.3125 132.346 39.3125C132.345 39.3125 132.345 39.3125 132.344 39.3125C132.344 39.3125 132.343 39.3125 132.343 39.3125C132.342 39.3125 132.342 39.3125 132.341 39.3125C132.341 39.3125 132.34 39.3125 132.34 39.3125C132.339 39.3125 132.339 39.3125 132.338 39.3125C132.338 39.3125 132.337 39.3125 132.337 39.3125C132.336 39.3125 132.336 39.3125 132.335 39.3125C132.335 39.3125 132.334 39.3125 132.334 39.3125C132.333 39.3125 132.333 39.3125 132.332 39.3125C132.332 39.3125 132.331 39.3125 132.331 39.3125C132.33 39.3125 132.33 39.3125 132.329 39.3125C132.329 39.3125 132.328 39.3125 132.328 39.3125C132.327 39.3125 132.327 39.3125 132.327 39.3125C132.326 39.3125 132.326 39.3125 132.325 39.3125C132.325 39.3125 132.324 39.3125 132.324 39.3125C132.323 39.3125 132.323 39.3125 132.322 39.3125C132.322 39.3125 132.321 39.3125 132.321 39.3125C132.32 39.3125 132.32 39.3125 132.319 39.3125C132.319 39.3125 132.318 39.3125 132.318 39.3125C132.317 39.3125 132.317 39.3125 132.316 39.3125C132.316 39.3125 132.315 39.3125 132.315 39.3125C132.315 39.3125 132.314 39.3125 132.314 39.3125C132.313 39.3125 132.313 39.3125 132.312 39.3125C132.312 39.3125 132.311 39.3125 132.311 39.3125C132.31 39.3125 132.31 39.3125 132.309 39.3125C132.309 39.3125 132.308 39.3125 132.308 39.3125C132.307 39.3125 132.307 39.3125 132.306 39.3125C132.306 39.3125 132.306 39.3125 132.305 39.3125C132.305 39.3125 132.304 39.3125 132.304 39.3125C132.303 39.3125 132.303 39.3125 132.302 39.3125C132.302 39.3125 132.301 39.3125 132.301 39.3125C132.3 39.3125 132.3 39.3125 132.299 39.3125C132.299 39.3125 132.299 39.3125 132.298 39.3125C132.298 39.3125 132.297 39.3125 132.297 39.3125C132.296 39.3125 132.296 39.3125 132.295 39.3125C132.295 39.3125 132.294 39.3125 132.294 39.3125C132.293 39.3125 132.293 39.3125 132.293 39.3125C132.292 39.3125 132.292 39.3125 132.291 39.3125C132.291 39.3125 132.29 39.3125 132.29 39.3125C132.289 39.3125 132.289 39.3125 132.288 39.3125C132.288 39.3125 132.287 39.3125 132.287 39.3125C132.287 39.3125 132.286 39.3125 132.286 39.3125C132.285 39.3125 132.285 39.3125 132.284 39.3125C132.284 39.3125 132.283 39.3125 132.283 39.3125C132.282 39.3125 132.282 39.3125 132.282 39.3125C132.281 39.3125 132.281 39.3125 132.28 39.3125C132.28 39.3125 132.279 39.3125 132.279 39.3125C132.278 39.3125 132.278 39.3125 132.277 39.3125C132.277 39.3125 132.277 39.3125 132.276 39.3125C132.276 39.3125 132.275 39.3125 132.275 39.3125C132.274 39.3125 132.274 39.3125 132.273 39.3125C132.273 39.3125 132.273 39.3125 132.272 39.3125C132.272 39.3125 132.271 39.3125 132.271 39.3125C132.27 39.3125 132.27 39.3125 132.269 39.3125C132.269 39.3125 132.269 39.3125 132.268 39.3125C132.268 39.3125 132.267 39.3125 132.267 39.3125C132.266 39.3125 132.266 39.3125 132.265 39.3125C132.265 39.3125 132.265 39.3125 132.264 39.3125C132.264 39.3125 132.263 39.3125 132.263 39.3125C132.262 39.3125 132.262 39.3125 132.261 39.3125C132.261 39.3125 132.261 39.3125 132.26 39.3125C132.26 39.3125 132.259 39.3125 132.259 39.3125C132.258 39.3125 132.258 39.3125 132.258 39.3125C132.257 39.3125 132.257 39.3125 132.256 39.3125C132.256 39.3125 132.255 39.3125 132.255 39.3125C132.254 39.3125 132.254 39.3125 132.254 39.3125C132.253 39.3125 132.253 39.3125 132.252 39.3125C132.252 39.3125 132.251 39.3125 132.251 39.3125C132.251 39.3125 132.25 39.3125 132.25 39.3125C132.249 39.3125 132.249 39.3125 132.248 39.3125C132.248 39.3125 132.248 39.3125 132.247 39.3125C132.247 39.3125 132.246 39.3125 132.246 39.3125C132.245 39.3125 132.245 39.3125 132.245 39.3125C132.244 39.3125 132.244 39.3125 132.243 39.3125C132.243 39.3125 132.242 39.3125 132.242 39.3125C132.242 39.3125 132.241 39.3125 132.241 39.3125C132.24 39.3125 132.24 39.3125 132.239 39.3125C132.239 39.3125 132.239 39.3125 132.238 39.3125C132.238 39.3125 132.237 39.3125 132.237 39.3125C132.237 39.3125 132.236 39.3125 132.236 39.3125C132.235 39.3125 132.235 39.3125 132.234 39.3125C132.234 39.3125 132.234 39.3125 132.233 39.3125C132.233 39.3125 132.232 39.3125 132.232 39.3125C132.232 39.3125 132.231 39.3125 132.231 39.3125C132.23 39.3125 132.23 39.3125 132.229 39.3125C132.229 39.3125 132.229 39.3125 132.228 39.3125C132.228 39.3125 132.227 39.3125 132.227 39.3125C132.227 39.3125 132.226 39.3125 132.226 39.3125C132.225 39.3125 132.225 39.3125 132.224 39.3125C132.224 39.3125 132.224 39.3125 132.223 39.3125C132.223 39.3125 132.222 39.3125 132.222 39.3125C132.222 39.3125 132.221 39.3125 132.221 39.3125C132.22 39.3125 132.22 39.3125 132.22 39.3125C132.219 39.3125 132.219 39.3125 132.218 39.3125C132.218 39.3125 132.218 39.3125 132.217 39.3125C132.217 39.3125 132.216 39.3125 132.216 39.3125C132.216 39.3125 132.215 39.3125 132.215 39.3125C132.214 39.3125 132.214 39.3125 132.213 39.3125C132.213 39.3125 132.213 39.3125 132.212 39.3125C132.212 39.3125 132.211 39.3125 132.211 39.3125C132.211 39.3125 132.21 39.3125 132.21 39.3125C132.209 39.3125 132.209 39.3125 132.209 39.3125C132.208 39.3125 132.208 39.3125 132.207 39.3125C132.207 39.3125 132.207 39.3125 132.206 39.3125C132.206 39.3125 132.205 39.3125 132.205 39.3125C132.205 39.3125 132.204 39.3125 132.204 39.3125C132.204 39.3125 132.203 39.3125 132.203 39.3125C132.202 39.3125 132.202 39.3125 132.202 39.3125C132.201 39.3125 132.201 39.3125 132.2 39.3125C132.2 39.3125 132.2 39.3125 132.199 39.3125C132.199 39.3125 132.198 39.3125 132.198 39.3125C132.198 39.3125 132.197 39.3125 132.197 39.3125C132.196 39.3125 132.196 39.3125 132.196 39.3125C132.195 39.3125 132.195 39.3125 132.195 39.3125C132.194 39.3125 132.194 39.3125 132.193 39.3125C132.193 39.3125 132.193 39.3125 132.192 39.3125C132.192 39.3125 132.191 39.3125 132.191 39.3125C132.191 39.3125 132.19 39.3125 132.19 39.3125C132.19 39.3125 132.189 39.3125 132.189 39.3125C132.188 39.3125 132.188 39.3125 132.188 39.3125C132.187 39.3125 132.187 39.3125 132.186 39.3125C132.186 39.3125 132.186 39.3125 132.185 39.3125C132.185 39.3125 132.185 39.3125 132.184 39.3125C132.184 39.3125 132.183 39.3125 132.183 39.3125C132.183 39.3125 132.182 39.3125 132.182 39.3125C132.182 39.3125 132.181 39.3125 132.181 39.3125C132.18 39.3125 132.18 39.3125 132.18 39.3125C132.179 39.3125 132.179 39.3125 132.179 39.3125C132.178 39.3125 132.178 39.3125 132.177 39.3125C132.177 39.3125 132.177 39.3125 132.176 39.3125C132.176 39.3125 132.176 39.3125 132.175 39.3125C132.175 39.3125 132.174 39.3125 132.174 39.3125C132.174 39.3125 132.173 39.3125 132.173 39.3125C132.173 39.3125 132.172 39.3125 132.172 39.3125C132.171 39.3125 132.171 39.3125 132.171 39.3125C132.17 39.3125 132.17 39.3125 132.17 39.3125C132.169 39.3125 132.169 39.3125 132.169 39.3125C132.168 39.3125 132.168 39.3125 132.167 39.3125C132.167 39.3125 132.167 39.3125 132.166 39.3125C132.166 39.3125 132.166 39.3125 132.165 39.3125C132.165 39.3125 132.165 39.3125 132.164 39.3125C132.164 39.3125 132.163 39.3125 132.163 39.3125C132.163 39.3125 132.162 39.3125 132.162 39.3125C132.162 39.3125 132.161 39.3125 132.161 39.3125C132.161 39.3125 132.16 39.3125 132.16 39.3125C132.159 39.3125 132.159 39.3125 132.159 39.3125C132.158 39.3125 132.158 39.3125 132.158 39.3125C132.157 39.3125 132.157 39.3125 132.157 39.3125C132.156 39.3125 132.156 39.3125 132.156 39.3125C132.155 39.3125 132.155 39.3125 132.155 39.3125C132.154 39.3125 132.154 39.3125 132.153 39.3125C132.153 39.3125 132.153 39.3125 132.152 39.3125C132.152 39.3125 132.152 39.3125 132.151 39.3125C132.151 39.3125 132.151 39.3125 132.15 39.3125C132.15 39.3125 132.15 39.3125 132.149 39.3125C132.149 39.3125 132.149 39.3125 132.148 39.3125C132.148 39.3125 132.148 39.3125 132.147 39.3125C132.147 39.3125 132.146 39.3125 132.146 39.3125C132.146 39.3125 132.145 39.3125 132.145 39.3125C132.145 39.3125 132.144 39.3125 132.144 39.3125C132.144 39.3125 132.143 39.3125 132.143 39.3125C132.143 39.3125 132.142 39.3125 132.142 39.3125C132.142 39.3125 132.141 39.3125 132.141 39.3125C132.141 39.3125 132.14 39.3125 132.14 39.3125C132.14 39.3125 132.139 39.3125 132.139 39.3125C132.139 39.3125 132.138 39.3125 132.138 39.3125C132.138 39.3125 132.137 39.3125 132.137 39.3125C132.137 39.3125 132.136 39.3125 132.136 39.3125C132.136 39.3125 132.135 39.3125 132.135 39.3125C132.135 39.3125 132.134 39.3125 132.134 39.3125C132.134 39.3125 132.133 39.3125 132.133 39.3125C132.133 39.3125 132.132 39.3125 132.132 39.3125C132.132 39.3125 132.131 39.3125 132.131 39.3125C132.131 39.3125 132.13 39.3125 132.13 39.3125C132.13 39.3125 132.129 39.3125 132.129 39.3125C132.129 39.3125 132.128 39.3125 132.128 39.3125C132.128 39.3125 132.127 39.3125 132.127 39.3125C132.127 39.3125 132.126 39.3125 132.126 39.3125C132.126 39.3125 132.125 39.3125 132.125 39.3125C132.125 39.3125 132.124 39.3125 132.124 39.3125C132.124 39.3125 132.123 39.3125 132.123 39.3125C132.123 39.3125 132.122 39.3125 132.122 39.3125C132.122 39.3125 132.121 39.3125 132.121 39.3125C132.121 39.3125 132.12 39.3125 132.12 39.3125C132.12 39.3125 132.12 39.3125 132.119 39.3125C132.119 39.3125 132.119 39.3125 132.118 39.3125C132.118 39.3125 132.118 39.3125 132.117 39.3125C132.117 39.3125 132.117 39.3125 132.116 39.3125C132.116 39.3125 132.116 39.3125 132.115 39.3125C132.115 39.3125 132.115 39.3125 132.114 39.3125C132.114 39.3125 132.114 39.3125 132.113 39.3125C132.113 39.3125 132.113 39.3125 132.113 39.3125C132.112 39.3125 132.112 39.3125 132.112 39.3125C132.111 39.3125 132.111 39.3125 132.111 39.3125C132.11 39.3125 132.11 39.3125 132.11 39.3125C132.109 39.3125 132.109 39.3125 132.109 39.3125C132.109 39.3125 132.108 39.3125 132.108 39.3125C132.108 39.3125 132.107 39.3125 132.107 39.3125C132.107 39.3125 132.106 39.3125 132.106 39.3125C132.106 39.3125 132.105 39.3125 132.105 39.3125C132.105 39.3125 132.105 39.3125 132.104 39.3125C132.104 39.3125 132.104 39.3125 132.103 39.3125C132.103 39.3125 132.103 39.3125 132.102 39.3125C132.102 39.3125 132.102 39.3125 132.101 39.3125C132.101 39.3125 132.101 39.3125 132.101 39.3125C132.1 39.3125 132.1 39.3125 132.1 39.3125C132.099 39.3125 132.099 39.3125 132.099 39.3125C132.098 39.3125 132.098 39.3125 132.098 39.3125C132.098 39.3125 132.097 39.3125 132.097 39.3125C132.097 39.3125 132.096 39.3125 132.096 39.3125C132.096 39.3125 132.096 39.3125 132.095 39.3125C132.095 39.3125 132.095 39.3125 132.094 39.3125C132.094 39.3125 132.094 39.3125 132.093 39.3125C132.093 39.3125 132.093 39.3125 132.093 39.3125C132.092 39.3125 132.092 39.3125 132.092 39.3125C132.091 39.3125 132.091 39.3125 132.091 39.3125C132.091 39.3125 132.09 39.3125 132.09 39.3125C132.09 39.3125 132.089 39.3125 132.089 39.3125C132.089 39.3125 132.089 39.3125 132.088 39.3125C132.088 39.3125 132.088 39.3125 132.087 39.3125C132.087 39.3125 132.087 39.3125 132.087 39.3125C132.086 39.3125 132.086 39.3125 132.086 39.3125C132.085 39.3125 132.085 39.3125 132.085 39.3125C132.085 39.3125 132.084 39.3125 132.084 39.3125C132.084 39.3125 132.083 39.3125 132.083 39.3125C132.083 39.3125 132.083 39.3125 132.082 39.3125C132.082 39.3125 132.082 39.3125 132.081 39.3125C132.081 39.3125 132.081 39.3125 132.081 39.3125C132.08 39.3125 132.08 39.3125 132.08 39.3125C132.079 39.3125 132.079 39.3125 132.079 39.3125C132.079 39.3125 132.078 39.3125 132.078 39.3125C132.078 39.3125 132.078 39.3125 132.077 39.3125C132.077 39.3125 132.077 39.3125 132.076 39.3125C132.076 39.3125 132.076 39.3125 132.076 39.3125C132.075 39.3125 132.075 39.3125 132.075 39.3125C132.075 39.3125 132.074 39.3125 132.074 39.3125C132.074 39.3125 132.073 39.3125 132.073 39.3125C132.073 39.3125 132.073 39.3125 132.072 39.3125C132.072 39.3125 132.072 39.3125 132.072 39.3125C132.071 39.3125 132.071 39.3125 132.071 39.3125C132.07 39.3125 132.07 39.3125 132.07 39.3125C132.07 39.3125 132.069 39.3125 132.069 39.3125C132.069 39.3125 132.069 39.3125 132.068 39.3125C132.068 39.3125 132.068 39.3125 132.068 39.3125C132.067 39.3125 132.067 39.3125 132.067 39.3125C132.067 39.3125 132.066 39.3125 132.066 39.3125C132.066 39.3125 132.065 39.3125 132.065 39.3125C132.065 39.3125 132.065 39.3125 132.064 39.3125C132.064 39.3125 132.064 39.3125 132.064 39.3125C132.063 39.3125 132.063 39.3125 132.063 39.3125C132.063 39.3125 132.062 39.3125 132.062 39.3125C132.062 39.3125 132.062 39.3125 132.061 39.3125C132.061 39.3125 132.061 39.3125 132.061 39.3125C132.06 39.3125 132.06 39.3125 132.06 39.3125C132.06 39.3125 132.059 39.3125 132.059 39.3125C132.059 39.3125 132.059 39.3125 132.058 39.3125C132.058 39.3125 132.058 39.3125 132.058 39.3125C132.057 39.3125 132.057 39.3125 132.057 39.3125C132.057 39.3125 132.056 39.3125 132.056 39.3125C132.056 39.3125 132.056 39.3125 132.055 39.3125C132.055 39.3125 132.055 39.3125 132.055 39.3125C132.054 39.3125 132.054 39.3125 132.054 39.3125C132.054 39.3125 132.053 39.3125 132.053 39.3125C132.053 39.3125 132.053 39.3125 132.052 39.3125C132.052 39.3125 132.052 39.3125 132.052 39.3125C132.051 39.3125 132.051 39.3125 132.051 39.3125C132.051 39.3125 132.05 39.3125 132.05 39.3125C132.05 39.3125 132.05 39.3125 132.049 39.3125C132.049 39.3125 132.049 39.3125 132.049 39.3125C132.048 39.3125 132.048 39.3125 132.048 39.3125C132.048 39.3125 132.048 39.3125 132.047 39.3125C132.047 39.3125 132.047 39.3125 132.047 39.3125C132.046 39.3125 132.046 39.3125 132.046 39.3125C132.046 39.3125 132.045 39.3125 132.045 39.3125C132.045 39.3125 132.045 39.3125 132.044 39.3125C132.044 39.3125 132.044 39.3125 132.044 39.3125C132.044 39.3125 132.043 39.3125 132.043 39.3125C132.043 39.3125 132.043 39.3125 132.042 39.3125C132.042 39.3125 132.042 39.3125 132.042 39.3125C132.041 39.3125 132.041 39.3125 132.041 39.3125C132.041 39.3125 132.041 39.3125 132.04 39.3125C132.04 39.3125 132.04 39.3125 132.04 39.3125C132.039 39.3125 132.039 39.3125 132.039 39.3125C132.039 39.3125 132.038 39.3125 132.038 39.3125C132.038 39.3125 132.038 39.3125 132.038 39.3125C132.037 39.3125 132.037 39.3125 132.037 39.3125C132.037 39.3125 132.036 39.3125 132.036 39.3125C132.036 39.3125 132.036 39.3125 132.036 39.3125C132.035 39.3125 132.035 39.3125 132.035 39.3125C132.035 39.3125 132.034 39.3125 132.034 39.3125C132.034 39.3125 132.034 39.3125 132.034 39.3125C132.033 39.3125 132.033 39.3125 132.033 39.3125C132.033 39.3125 132.032 39.3125 132.032 39.3125C132.032 39.3125 132.032 39.3125 132.032 39.3125C132.031 39.3125 132.031 39.3125 132.031 39.3125C132.031 39.3125 132.031 39.3125 132.03 39.3125C132.03 39.3125 132.03 39.3125 132.03 39.3125C132.029 39.3125 132.029 39.3125 132.029 39.3125C132.029 39.3125 132.029 39.3125 132.028 39.3125C132.028 39.3125 132.028 39.3125 132.028 39.3125C132.028 39.3125 132.027 39.3125 132.027 39.3125C132.027 39.3125 132.027 39.3125 132.027 39.3125C132.026 39.3125 132.026 39.3125 132.026 39.3125C132.026 39.3125 132.025 39.3125 132.025 39.3125C132.025 39.3125 132.025 39.3125 132.025 39.3125C132.024 39.3125 132.024 39.3125 132.024 39.3125C132.024 39.3125 132.024 39.3125 132.023 39.3125C132.023 39.3125 132.023 39.3125 132.023 39.3125C132.023 39.3125 132.022 39.3125 132.022 39.3125C132.022 39.3125 132.022 39.3125 132.022 39.3125C132.021 39.3125 132.021 39.3125 132.021 39.3125C132.021 39.3125 132.021 39.3125 132.02 39.3125C132.02 39.3125 132.02 39.3125 132.02 39.3125C132.02 39.3125 132.019 39.3125 132.019 39.3125C132.019 39.3125 132.019 39.3125 132.019 39.3125C132.018 39.3125 132.018 39.3125 132.018 39.3125C132.018 39.3125 132.018 39.3125 132.017 39.3125C132.017 39.3125 132.017 39.3125 132.017 39.3125C132.017 39.3125 132.017 39.3125 132.016 39.3125C132.016 39.3125 132.016 39.3125 132.016 39.3125C132.016 39.3125 132.015 39.3125 132.015 39.3125C132.015 39.3125 132.015 39.3125 132.015 39.3125C132.014 39.3125 132.014 39.3125 132.014 39.3125C132.014 39.3125 132.014 39.3125 132.013 39.3125C132.013 39.3125 132.013 39.3125 132.013 39.3125C132.013 39.3125 132.013 39.3125 132.012 39.3125C132.012 39.3125 132.012 39.3125 132.012 39.3125C132.012 39.3125 132.011 39.3125 132.011 39.3125C132.011 39.3125 132.011 39.3125 132.011 39.3125C132.011 39.3125 132.01 39.3125 132.01 39.3125C132.01 39.3125 132.01 39.3125 132.01 39.3125C132.009 39.3125 132.009 39.3125 132.009 39.3125C132.009 39.3125 132.009 39.3125 132.009 39.3125C132.008 39.3125 132.008 39.3125 132.008 39.3125C132.008 39.3125 132.008 39.3125 132.007 39.3125C132.007 39.3125 132.007 39.3125 132.007 39.3125C132.007 39.3125 132.007 39.3125 132.006 39.3125C132.006 39.3125 132.006 39.3125 132.006 39.3125C132.006 39.3125 132.006 39.3125 132.005 39.3125C132.005 39.3125 132.005 39.3125 132.005 39.3125C132.005 39.3125 132.005 39.3125 132.004 39.3125C132.004 39.3125 132.004 39.3125 132.004 39.3125C132.004 39.3125 132.003 39.3125 132.003 39.3125C132.003 39.3125 132.003 39.3125 132.003 39.3125C132.003 39.3125 132.002 39.3125 132.002 39.3125C132.002 39.3125 132.002 39.3125 132.002 39.3125C132.002 39.3125 132.001 39.3125 132.001 39.3125C132.001 39.3125 132.001 39.3125 132.001 39.3125C132.001 39.3125 132 39.3125 132 39.3125C132 39.3125 132 39.3125 132 39.3125C132 39.3125 132 39.3125 131.999 39.3125C131.999 39.3125 131.999 39.3125 131.999 39.3125C131.999 39.3125 131.999 39.3125 131.998 39.3125C131.998 39.3125 131.998 39.3125 131.998 39.3125C131.998 39.3125 131.998 39.3125 131.997 39.3125C131.997 39.3125 131.997 39.3125 131.997 39.3125C131.997 39.3125 131.997 39.3125 131.996 39.3125C131.996 39.3125 131.996 39.3125 131.996 39.3125C131.996 39.3125 131.996 39.3125 131.996 39.3125C131.995 39.3125 131.995 39.3125 131.995 39.3125C131.995 39.3125 131.995 39.3125 131.995 39.3125C131.994 39.3125 131.994 39.3125 131.994 39.3125C131.994 39.3125 131.994 39.3125 131.994 39.3125C131.994 39.3125 131.993 39.3125 131.993 39.3125C131.993 39.3125 131.993 39.3125 131.993 39.3125C131.993 39.3125 131.993 39.3125 131.992 39.3125C131.992 39.3125 131.992 39.3125 131.992 39.3125C131.992 39.3125 131.992 39.3125 131.992 39.3125C131.991 39.3125 131.991 39.3125 131.991 39.3125C131.991 39.3125 131.991 39.3125 131.991 39.3125C131.991 39.3125 131.99 39.3125 131.99 39.3125C131.99 39.3125 131.99 39.3125 131.99 39.3125C131.99 39.3125 131.99 39.3125 131.989 39.3125C131.989 39.3125 131.989 39.3125 131.989 39.3125C131.989 39.3125 131.989 39.3125 131.989 39.3125C131.988 39.3125 131.988 39.3125 131.988 39.3125C131.988 39.3125 131.988 39.3125 131.988 39.3125C131.988 39.3125 131.987 39.3125 131.987 39.3125C131.987 39.3125 131.987 39.3125 131.987 39.3125C131.987 39.3125 131.987 39.3125 131.987 39.3125C131.986 39.3125 131.986 39.3125 131.986 39.3125C131.986 39.3125 131.986 39.3125 131.986 39.3125C131.986 39.3125 131.985 39.3125 131.985 39.3125C131.985 39.3125 131.985 39.3125 131.985 39.3125C131.985 39.3125 131.985 39.3125 131.985 39.3125C131.984 39.3125 131.984 39.3125 131.984 39.3125C131.984 39.3125 131.984 39.3125 131.984 39.3125C131.984 39.3125 131.984 39.3125 131.983 39.3125C131.983 39.3125 131.983 39.3125 131.983 39.3125C131.983 39.3125 131.983 39.3125 131.983 39.3125C131.983 39.3125 131.982 39.3125 131.982 39.3125C131.982 39.3125 131.982 39.3125 131.982 39.3125C131.982 39.3125 131.982 39.3125 131.982 39.3125C131.981 39.3125 131.981 39.3125 131.981 39.3125C131.981 39.3125 131.981 39.3125 131.981 39.3125C131.981 39.3125 131.981 39.3125 131.98 39.3125C131.98 39.3125 131.98 39.3125 131.98 39.3125C131.98 39.3125 131.98 39.3125 131.98 39.3125C131.98 39.3125 131.98 39.3125 131.979 39.3125C131.979 39.3125 131.979 39.3125 131.979 39.3125C131.979 39.3125 131.979 39.3125 131.979 39.3125C131.979 39.3125 131.978 39.3125 131.978 39.3125C131.978 39.3125 131.978 39.3125 131.978 39.3125C131.978 39.3125 131.978 39.3125 131.978 39.3125C131.978 39.3125 131.977 39.3125 131.977 39.3125C131.977 39.3125 131.977 39.3125 131.977 39.3125C131.977 39.3125 131.977 39.3125 131.977 39.3125C131.977 39.3125 131.976 39.3125 131.976 39.3125C131.976 39.3125 131.976 39.3125 131.976 39.3125C131.976 39.3125 131.976 39.3125 131.976 39.3125C131.976 39.3125 131.976 39.3125 131.975 39.3125C131.975 39.3125 131.975 39.3125 131.975 39.3125C131.975 39.3125 131.975 39.3125 131.975 39.3125C131.975 39.3125 131.975 39.3125 131.975 39.3125C131.974 39.3125 131.974 39.3125 131.974 39.3125C131.974 39.3125 131.974 39.3125 131.974 39.3125C131.974 39.3125 131.974 39.3125 131.974 39.3125C131.974 39.3125 131.973 39.3125 131.973 39.3125C131.973 39.3125 131.973 39.3125 131.973 39.3125C131.973 39.3125 131.973 39.3125 131.973 39.3125C131.973 39.3125 131.973 39.3125 131.972 39.3125C131.972 39.3125 131.972 39.3125 131.972 39.3125C131.972 39.3125 131.972 39.3125 131.972 39.3125C131.972 39.3125 131.972 39.3125 131.972 39.3125C131.972 39.3125 131.971 39.3125 131.971 39.3125C131.971 39.3125 131.971 39.3125 131.971 39.3125C131.971 39.3125 131.971 39.3125 131.971 39.3125C131.971 39.3125 131.971 39.3125 131.971 39.3125C131.97 39.3125 131.97 39.3125 131.97 39.3125C131.97 39.3125 131.97 39.3125 131.97 39.3125C131.97 39.3125 131.97 39.3125 131.97 39.3125C131.97 39.3125 131.97 39.3125 131.969 39.3125C131.969 39.3125 131.969 39.3125 131.969 39.3125C131.969 39.3125 131.969 39.3125 131.969 39.3125C131.969 39.3125 131.969 39.3125 131.969 39.3125V41.3125ZM132.54 41.31C132.949 41.2808 133.402 41.1701 133.879 41.0112L133.246 39.1138C132.848 39.2465 132.572 39.3026 132.398 39.315L132.54 41.31ZM133.918 40.997C134.461 40.7904 135.017 40.4699 135.584 40.0615L134.416 38.4385C133.941 38.7801 133.539 39.0013 133.207 39.128L133.918 40.997ZM135.59 40.0574C136.236 39.5855 136.846 38.9421 137.428 38.1588L135.822 36.9662C135.321 37.6412 134.848 38.1228 134.41 38.4426L135.59 40.0574ZM135.625 37.5625V50.2812H137.625V37.5625H135.625ZM137.5 49.7976C137.023 48.9341 136.477 48.209 135.848 47.6555L134.527 49.157C134.94 49.5202 135.352 50.045 135.75 50.7649L137.5 49.7976ZM135.848 47.6555C135.273 47.1496 134.686 46.7501 134.086 46.4892L133.289 48.3233C133.647 48.4791 134.06 48.7463 134.527 49.157L135.848 47.6555ZM134.135 46.5118C133.606 46.2475 133.074 46.0646 132.548 46.0061L132.327 47.9939C132.551 48.0188 132.852 48.1066 133.24 48.3007L134.135 46.5118ZM132.611 46.0152C132.269 45.9548 131.945 45.9062 131.719 45.9062V47.9062C131.715 47.9062 131.754 47.9071 131.863 47.9213C131.963 47.9343 132.095 47.955 132.264 47.9848L132.611 46.0152ZM131.719 45.9062C130.927 45.9062 130.189 46.0374 129.553 46.3556L130.447 48.1444C130.728 48.0042 131.136 47.9062 131.719 47.9062V45.9062ZM129.536 46.3642C128.946 46.6735 128.463 47.1142 128.099 47.6738L129.776 48.7637C129.954 48.49 130.179 48.2849 130.464 48.1358L129.536 46.3642ZM128.092 47.6848C127.757 48.2147 127.543 48.8336 127.422 49.5117L129.391 49.8633C129.478 49.3747 129.618 49.0145 129.783 48.7527L128.092 47.6848ZM127.423 49.5054C127.306 50.1385 127.25 50.8257 127.25 51.5625H129.25C129.25 50.9243 129.298 50.3615 129.39 49.8696L127.423 49.5054ZM127.251 51.6014C127.315 53.2436 127.475 54.9352 127.729 56.676L129.708 56.3865C129.463 54.7106 129.31 53.0898 129.249 51.5236L127.251 51.6014ZM127.729 56.6727C127.836 57.4241 127.975 58.2149 128.145 59.0447L130.105 58.6428C129.941 57.8476 129.81 57.0968 129.709 56.3898L127.729 56.6727ZM128.145 59.0447C128.318 59.8843 128.532 60.7527 128.788 61.6497L130.712 61.1003C130.468 60.2473 130.266 59.4282 130.105 58.6428L128.145 59.0447ZM128.79 61.6559C129.048 62.5367 129.348 63.4263 129.691 64.3247L131.559 63.6128C131.235 62.7612 130.952 61.9216 130.71 61.0941L128.79 61.6559ZM129.693 64.3323C130.041 65.222 130.442 66.0995 130.896 66.9648L132.667 66.0352C132.246 65.2338 131.876 64.4239 131.557 63.6052L129.693 64.3323ZM131.827 65.501C131.38 65.4807 130.891 65.4502 130.358 65.4092L130.205 67.4033C130.755 67.4456 131.265 67.4776 131.736 67.499L131.827 65.501ZM130.368 65.41C129.866 65.3663 129.284 65.3343 128.626 65.313L128.562 67.312C129.195 67.3324 129.738 67.3628 130.195 67.4025L130.368 65.41ZM128.627 65.3131C127.989 65.2918 127.269 65.2812 126.469 65.2812V67.2812C127.252 67.2812 127.949 67.2916 128.56 67.3119L128.627 65.3131ZM126.469 65.2812C125.509 65.2812 124.469 65.3132 123.35 65.3766L123.463 67.3734C124.551 67.3118 125.553 67.2812 126.469 67.2812V65.2812ZM123.369 65.3757C122.24 65.4183 121.091 65.5034 119.923 65.6309L120.14 67.6191C121.263 67.4966 122.364 67.415 123.444 67.3743L123.369 65.3757ZM119.923 65.6309C118.754 65.7584 117.575 65.9284 116.387 66.1406L116.738 68.1094C117.883 67.905 119.017 67.7416 120.14 67.6191L119.923 65.6309ZM116.37 66.1438C115.169 66.3795 114.019 66.6696 112.919 67.0146L113.518 68.9229C114.543 68.6013 115.622 68.3288 116.755 68.1062L116.37 66.1438ZM114.117 68.408C114.619 67.3809 115.036 66.1157 115.38 64.6321L113.432 64.1804C113.109 65.5718 112.735 66.6816 112.32 67.5295L114.117 68.408ZM115.38 64.6321C115.722 63.1587 115.999 61.5943 116.211 59.9397L114.227 59.6853C114.022 61.2807 113.757 62.7788 113.432 64.1804L115.38 64.6321ZM116.209 59.9521C116.441 58.3046 116.621 56.6264 116.747 54.9176L114.753 54.7699C114.629 56.4361 114.455 58.0704 114.229 59.6729L116.209 59.9521ZM116.747 54.9176C116.873 53.2217 116.967 51.6489 117.03 50.1997L115.032 50.1128C114.97 51.5386 114.877 53.0908 114.753 54.7699L116.747 54.9176ZM117.03 50.1991C117.093 48.7313 117.125 47.4559 117.125 46.375H115.125C115.125 47.4191 115.094 48.6645 115.032 50.1134L117.03 50.1991ZM117.125 46.3942C117.146 45.3118 117.156 44.5631 117.156 44.1562H115.156C115.156 44.5411 115.146 45.2715 115.125 46.3558L117.125 46.3942ZM117.156 44.1562C117.156 44.0491 117.145 43.7002 117.124 43.1505L115.126 43.2245C115.136 43.5051 115.144 43.7247 115.149 43.8838C115.152 43.9634 115.153 44.0268 115.155 44.0745C115.155 44.0983 115.156 44.1173 115.156 44.1319C115.156 44.1392 115.156 44.1449 115.156 44.1493C115.156 44.1515 115.156 44.1531 115.156 44.1544C115.156 44.155 115.156 44.1554 115.156 44.1558C115.156 44.1559 115.156 44.156 115.156 44.1561C115.156 44.1562 115.156 44.1562 115.156 44.1562C115.156 44.1563 115.156 44.1562 115.156 44.1562C115.156 44.1563 115.156 44.1562 115.156 44.1562H117.156ZM117.125 43.1875C117.125 42.6141 117.114 41.8764 117.093 40.9768L115.094 41.0232C115.115 41.9153 115.125 42.6359 115.125 43.1875H117.125ZM117.093 40.9768C117.073 40.0755 117.041 39.0502 116.999 37.9012L115.001 37.9738C115.042 39.1164 115.073 40.1328 115.094 41.0232L117.093 40.9768ZM116.999 37.9018C116.957 36.7241 116.894 35.5055 116.81 34.246L114.815 34.379C114.897 35.6195 114.959 36.8175 115.001 37.9732L116.999 37.9018ZM116.811 34.2626C116.748 32.9962 116.653 31.7198 116.526 30.4334L114.536 30.6291C114.66 31.8843 114.752 33.1288 114.814 34.3624L116.811 34.2626ZM116.528 30.4496C116.422 29.1596 116.284 27.9399 116.114 26.791L114.136 27.084C114.299 28.1851 114.432 29.3613 114.535 30.6129L116.528 30.4496ZM116.117 26.8112C115.968 25.6398 115.785 24.5845 115.568 23.6485L113.62 24.1015C113.819 24.9572 113.99 25.9435 114.133 27.0638L116.117 26.8112ZM115.573 23.6746C115.377 22.7134 115.126 21.8904 114.801 21.2403L113.012 22.1347C113.228 22.5679 113.436 23.2033 113.614 24.0754L115.573 23.6746ZM113.702 22.6665C115.74 23.0911 117.809 23.3987 119.909 23.5896L120.091 21.5979C118.066 21.4138 116.072 21.1173 114.11 20.7085L113.702 22.6665ZM119.92 23.5906C122.029 23.7593 124.108 23.8438 126.156 23.8438V21.8438C124.163 21.8438 122.137 21.7616 120.08 21.5969L119.92 23.5906ZM126.156 23.8438C128.49 23.8438 130.701 23.7702 132.789 23.6225L132.648 21.6275C130.612 21.7715 128.448 21.8438 126.156 21.8438V23.8438ZM132.799 23.6218C134.874 23.4541 136.704 23.2649 138.288 23.0537L138.024 21.0713C136.483 21.2767 134.688 21.4626 132.638 21.6282L132.799 23.6218ZM138.28 23.0548C140.134 22.823 141.847 22.5484 143.417 22.2301L143.02 20.2699C141.507 20.5766 139.845 20.8437 138.032 21.0702L138.28 23.0548ZM142.219 21.25V35.9062H144.219V21.25H142.219ZM180.281 67.375L180.153 68.3668L181.767 68.575L181.224 67.0411L180.281 67.375ZM176.531 67.0312L176.479 68.0299L176.48 68.0299L176.531 67.0312ZM162.719 67.9062L161.749 67.6637L161.371 69.1735L162.901 68.8895L162.719 67.9062ZM163.125 66.5938L162.203 66.2057L162.198 66.2184L162.193 66.2313L163.125 66.5938ZM163.562 65.3125L164.527 65.5756L164.53 65.5649L163.562 65.3125ZM163.781 58.4062L162.794 58.5634L162.794 58.5669L163.781 58.4062ZM163.125 56L162.2 56.3808L162.204 56.3905L163.125 56ZM162.031 54.3125L161.324 55.0196L161.333 55.0282L161.342 55.0366L162.031 54.3125ZM158.969 54.25L158.318 53.4907L158.309 53.4986L158.3 53.5067L158.969 54.25ZM157.938 55.7812L157.015 55.3945L157.01 55.4073L157.005 55.4203L157.938 55.7812ZM157.375 58L156.386 57.8517L156.384 57.8638L156.383 57.876L157.375 58ZM157.375 63.0938L156.386 63.2436L156.389 63.2608L156.392 63.278L157.375 63.0938ZM157.781 64.8438L156.821 65.1238L156.827 65.142L156.833 65.16L157.781 64.8438ZM158.25 66.1875L157.312 66.5332L157.315 66.5416L157.318 66.5499L158.25 66.1875ZM158.562 67.3125L158.447 68.3058L159.767 68.4589L159.549 67.1481L158.562 67.3125ZM154.312 66.9375L154.252 67.9357L154.253 67.9357L154.312 66.9375ZM146.031 66.9375L145.972 65.9393L145.971 65.9393L146.031 66.9375ZM141.75 67.3125L140.805 66.9868L140.289 68.4834L141.862 68.3062L141.75 67.3125ZM145.125 56.1562L144.158 55.8996L144.157 55.9047L145.125 56.1562ZM149.281 33.7188L148.288 33.6047L148.287 33.6101L149.281 33.7188ZM150.25 22L150.384 21.009L149.308 20.8636L149.251 21.948L150.25 22ZM155.312 22.4688L155.256 23.4672L155.268 23.4677L155.312 22.4688ZM165.781 22.4688L165.728 21.4702L165.727 21.4702L165.781 22.4688ZM170.094 21.9375L171.093 21.9009L171.05 20.7192L169.892 20.9581L170.094 21.9375ZM173.469 45.1562L172.496 45.3862L172.497 45.3925L173.469 45.1562ZM176.594 56.375L175.64 56.6751L175.64 56.6766L176.594 56.375ZM162.781 43.125L163.78 43.1694L163.784 43.0947L163.776 43.0203L162.781 43.125ZM162.406 41.375L163.372 41.1141L163.369 41.1043L162.406 41.375ZM161.562 38.75L160.616 39.0716L160.618 39.0771L161.562 38.75ZM159.906 34.5L160.828 34.1114L159.455 30.8564L158.918 34.3479L159.906 34.5ZM159.344 37.4062L160.314 37.6488L160.315 37.6432L159.344 37.4062ZM158.75 39.6875L159.713 39.9583L159.715 39.9506L158.75 39.6875ZM158.25 41.5312L157.282 41.2803L157.278 41.2972L157.274 41.3143L158.25 41.5312ZM158.781 45.5625L158.009 46.1972L158.021 46.2123L158.034 46.2269L158.781 45.5625ZM180.409 66.3832C179.094 66.2135 177.819 66.0965 176.583 66.0326L176.48 68.0299C177.661 68.091 178.885 68.2031 180.153 68.3668L180.409 66.3832ZM176.584 66.0326C175.378 65.9692 174.152 65.9375 172.906 65.9375V67.9375C174.118 67.9375 175.309 67.9683 176.479 68.0299L176.584 66.0326ZM172.906 65.9375C169.529 65.9375 166.072 66.2668 162.536 66.923L162.901 68.8895C166.324 68.254 169.659 67.9375 172.906 67.9375V65.9375ZM163.689 68.1488C163.806 67.6788 163.93 67.283 164.057 66.9562L162.193 66.2313C162.028 66.6545 161.881 67.1337 161.749 67.6637L163.689 68.1488ZM164.047 66.9818C164.232 66.5413 164.392 66.0721 164.527 65.5756L162.598 65.0494C162.483 65.4696 162.351 65.8545 162.203 66.2057L164.047 66.9818ZM164.53 65.5649C164.668 65.0372 164.779 64.4436 164.866 63.7884L162.884 63.5241C162.804 64.1189 162.707 64.6294 162.595 65.0601L164.53 65.5649ZM164.866 63.7884C164.958 63.1026 165 62.2521 165 61.25H163C163 62.2063 162.959 62.9599 162.884 63.5241L164.866 63.7884ZM165 61.25C165 60.2015 164.924 59.1996 164.768 58.2456L162.794 58.5669C162.931 59.4046 163 60.2985 163 61.25H165ZM164.769 58.2491C164.613 57.2707 164.376 56.3872 164.046 55.6095L162.204 56.3905C162.458 56.9878 162.658 57.7084 162.794 58.5634L164.769 58.2491ZM164.05 55.6193C163.718 54.8148 163.283 54.124 162.721 53.5884L161.342 55.0366C161.654 55.3344 161.948 55.7686 162.2 56.3807L164.05 55.6193ZM162.738 53.6054C162.144 53.0111 161.404 52.6875 160.562 52.6875V54.6875C160.846 54.6875 161.085 54.7805 161.324 55.0196L162.738 53.6054ZM160.562 52.6875C159.721 52.6875 158.953 52.9468 158.318 53.4907L159.62 55.0093C159.86 54.8032 160.154 54.6875 160.562 54.6875V52.6875ZM158.3 53.5067C157.75 54.0019 157.329 54.6456 157.015 55.3945L158.86 56.168C159.087 55.6252 159.355 55.2481 159.638 54.9933L158.3 53.5067ZM157.005 55.4203C156.723 56.1476 156.52 56.9606 156.386 57.8517L158.364 58.1483C158.48 57.3727 158.652 56.7066 158.87 56.1422L157.005 55.4203ZM156.383 57.876C156.273 58.7549 156.219 59.682 156.219 60.6562H158.219C158.219 59.7555 158.269 58.9118 158.367 58.124L156.383 57.876ZM156.219 60.6562C156.219 61.6279 156.273 62.4928 156.386 63.2436L158.364 62.9439C158.269 62.3197 158.219 61.5596 158.219 60.6562H156.219ZM156.392 63.278C156.521 63.9679 156.664 64.5845 156.821 65.1238L158.741 64.5637C158.607 64.103 158.479 63.5529 158.358 62.9095L156.392 63.278ZM156.833 65.16C157.002 65.6675 157.161 66.1256 157.312 66.5332L159.188 65.8418C159.047 65.4578 158.894 65.02 158.73 64.5275L156.833 65.16ZM157.318 66.5499C157.44 66.8647 157.526 67.1734 157.576 67.4769L159.549 67.1481C159.474 66.7016 159.351 66.2603 159.182 65.8251L157.318 66.5499ZM158.678 66.3192C157.222 66.1504 155.787 66.0238 154.372 65.9393L154.253 67.9357C155.63 68.0179 157.028 68.1412 158.447 68.3058L158.678 66.3192ZM154.373 65.9393C152.978 65.8548 151.583 65.8125 150.188 65.8125V67.8125C151.542 67.8125 152.897 67.8536 154.252 67.9357L154.373 65.9393ZM150.188 65.8125C148.792 65.8125 147.387 65.8548 145.972 65.9393L146.091 67.9357C147.467 67.8536 148.833 67.8125 150.188 67.8125V65.8125ZM145.971 65.9393C144.577 66.0238 143.133 66.1503 141.638 66.3188L141.862 68.3062C143.325 68.1413 144.735 68.0179 146.092 67.9357L145.971 65.9393ZM142.695 67.6382C143.995 63.8647 145.128 60.1213 146.093 56.4078L144.157 55.9047C143.206 59.5662 142.088 63.2603 140.805 66.9868L142.695 67.6382ZM146.092 56.4129C147.077 52.7007 147.916 48.9672 148.608 45.2126L146.642 44.8499C145.959 48.5536 145.131 52.2368 144.158 55.8996L146.092 56.4129ZM148.608 45.2126C149.3 41.459 149.856 37.664 150.275 33.8274L148.287 33.6101C147.873 37.3985 147.325 41.1451 146.642 44.8499L148.608 45.2126ZM150.275 33.8328C150.715 29.9988 151.039 26.0718 151.249 22.052L149.251 21.948C149.044 25.9282 148.723 29.8137 148.288 33.6047L150.275 33.8328ZM150.116 22.991C151.687 23.2033 153.401 23.3618 155.256 23.4671L155.369 21.4704C153.557 21.3674 151.896 21.2133 150.384 21.009L150.116 22.991ZM155.268 23.4677C157.137 23.5518 159.048 23.5938 161 23.5938V21.5938C159.077 21.5938 157.196 21.5524 155.357 21.4698L155.268 23.4677ZM161 23.5938C162.663 23.5938 164.274 23.5517 165.835 23.4673L165.727 21.4702C164.205 21.5525 162.629 21.5938 161 21.5938V23.5938ZM165.835 23.4673C167.439 23.3818 168.927 23.1993 170.296 22.9169L169.892 20.9581C168.636 21.2173 167.249 21.3891 165.728 21.4702L165.835 23.4673ZM169.094 21.9741C169.242 25.9921 169.62 29.9482 170.231 33.8424L172.207 33.5326C171.609 29.7184 171.237 25.8413 171.093 21.9009L169.094 21.9741ZM170.231 33.8424C170.839 37.7217 171.594 41.5697 172.496 45.3862L174.442 44.9263C173.552 41.1595 172.807 37.3616 172.207 33.5326L170.231 33.8424ZM172.497 45.3925C173.419 49.1848 174.467 52.9457 175.64 56.6751L177.548 56.0749C176.388 52.3876 175.352 48.6693 174.44 44.92L172.497 45.3925ZM175.64 56.6766C176.81 60.375 178.043 64.0524 179.339 67.7089L181.224 67.0411C179.936 63.4059 178.71 59.75 177.547 56.0734L175.64 56.6766ZM163.776 43.0203C163.725 42.5422 163.583 41.8959 163.372 41.1141L161.441 41.6359C161.646 42.3957 161.754 42.9162 161.787 43.2297L163.776 43.0203ZM163.369 41.1043C163.174 40.4104 162.885 39.5145 162.507 38.4229L160.618 39.0771C160.99 40.1522 161.264 41.0062 161.444 41.6457L163.369 41.1043ZM162.509 38.4284C162.124 37.2923 161.561 35.8511 160.828 34.1114L158.985 34.8886C159.71 36.6072 160.251 37.9994 160.616 39.0716L162.509 38.4284ZM158.918 34.3479C158.755 35.4094 158.572 36.349 158.372 37.1693L160.315 37.6432C160.532 36.7552 160.725 35.7573 160.895 34.6521L158.918 34.3479ZM158.374 37.1637C158.167 37.9915 157.971 38.7449 157.785 39.4244L159.715 39.9506C159.904 39.2551 160.104 38.4877 160.314 37.6488L158.374 37.1637ZM157.787 39.4168C157.598 40.0888 157.43 40.7101 157.282 41.2803L159.218 41.7822C159.362 41.2274 159.527 40.6195 159.713 39.9582L157.787 39.4168ZM157.274 41.3143C157.135 41.9375 157.062 42.542 157.062 43.125H159.062C159.062 42.708 159.115 42.25 159.226 41.7482L157.274 41.3143ZM157.062 43.125C157.062 44.3109 157.335 45.3775 158.009 46.1972L159.554 44.9278C159.269 44.5808 159.062 44.0224 159.062 43.125H157.062ZM158.034 46.2269C158.673 46.9463 159.48 47.4062 160.438 47.4062V45.4062C160.187 45.4062 159.889 45.3037 159.529 44.8981L158.034 46.2269ZM160.438 47.4062C161.472 47.4062 162.296 46.8791 162.882 46.0422L161.243 44.8953C160.954 45.3084 160.695 45.4062 160.438 45.4062V47.4062ZM162.882 46.0422C163.451 45.2292 163.732 44.253 163.78 43.1694L161.782 43.0806C161.747 43.872 161.549 44.4583 161.243 44.8953L162.882 46.0422ZM214.406 51.875L213.418 51.7213L213.417 51.7305L214.406 51.875ZM213.125 57.125L212.182 56.7909L212.18 56.7979L213.125 57.125ZM210.969 61.625L210.125 61.0881L210.119 61.0973L210.969 61.625ZM207.938 65.2188L207.279 64.4662L206.672 64.9969L207.062 65.7023L207.938 65.2188ZM214.719 73.3438L215.025 74.2956L216.737 73.744L215.365 72.581L214.719 73.3438ZM204.875 79.0938L203.884 79.2277L204.143 81.1448L205.557 79.8248L204.875 79.0938ZM202 68.3438L202.922 67.9554L202.587 67.1604L201.751 67.3753L202 68.3438ZM199.719 68.7812L199.588 67.7898L199.573 67.7917L199.559 67.7941L199.719 68.7812ZM189.531 67.1562L190.011 66.279L190.008 66.2774L189.531 67.1562ZM184.062 62.2812L183.239 62.8492L183.246 62.8586L184.062 62.2812ZM180.844 55L179.874 55.2459L179.875 55.2477L180.844 55ZM188.594 24.1875L189.236 24.9537L189.238 24.9527L188.594 24.1875ZM192.75 21.625L192.372 20.6992L192.367 20.7011L192.75 21.625ZM204.469 22.6562L203.953 23.5131L203.963 23.5188L204.469 22.6562ZM210 27.9688L209.169 28.5252L209.173 28.5304L210 27.9688ZM213.562 36L212.597 36.2609L212.599 36.267L213.562 36ZM201.688 39.0625L200.705 39.2468L200.705 39.2496L201.688 39.0625ZM200.656 35.625L199.736 36.0166L199.741 36.0285L199.747 36.0403L200.656 35.625ZM199.156 33.3438L198.462 34.0636L198.469 34.0701L198.476 34.0765L199.156 33.3438ZM195.531 33.5L196.285 34.1568L196.29 34.1509L196.296 34.1449L195.531 33.5ZM194.031 36.0312L193.109 35.644L193.106 35.6519L193.103 35.6599L194.031 36.0312ZM192.969 46.8125L191.987 47.0049L191.99 47.0162L191.992 47.0274L192.969 46.8125ZM195.344 51.375L194.712 52.1502L194.728 52.1629L194.744 52.175L195.344 51.375ZM199.25 51.375L199.85 52.175L199.854 52.1717L199.25 51.375ZM200.75 49.5312L199.87 49.0557L199.865 49.065L199.86 49.0744L200.75 49.5312ZM201.719 46.8125L202.695 47.0274L202.696 47.0233L201.719 46.8125ZM213.844 46.0625C213.844 48.0138 213.701 49.8998 213.418 51.7213L215.394 52.0287C215.694 50.1002 215.844 48.1112 215.844 46.0625H213.844ZM213.417 51.7305C213.155 53.5247 212.742 55.2109 212.182 56.7909L214.068 57.4591C214.674 55.7474 215.116 53.9336 215.396 52.0195L213.417 51.7305ZM212.18 56.7979C211.642 58.3533 210.956 59.7824 210.125 61.0881L211.812 62.1619C212.731 60.7176 213.483 59.1467 214.07 57.4521L212.18 56.7979ZM210.119 61.0973C209.315 62.3921 208.368 63.5133 207.279 64.4662L208.596 65.9713C209.84 64.8826 210.914 63.6079 211.818 62.1527L210.119 61.0973ZM207.062 65.7023C208.773 68.7985 211.114 71.599 214.072 74.1065L215.365 72.581C212.573 70.2135 210.394 67.5974 208.813 64.7352L207.062 65.7023ZM214.412 72.3919C210.526 73.6442 207.115 75.6349 204.193 78.3627L205.557 79.8248C208.26 77.3026 211.412 75.4599 215.025 74.2956L214.412 72.3919ZM205.866 78.9598C205.334 75.0253 204.354 71.3557 202.922 67.9554L201.078 68.7321C202.437 71.9568 203.374 75.4539 203.884 79.2277L205.866 78.9598ZM201.751 67.3753C201.063 67.5521 200.342 67.6906 199.588 67.7898L199.849 69.7727C200.678 69.6636 201.479 69.5104 202.249 69.3122L201.751 67.3753ZM199.559 67.7941C198.844 67.91 198.096 67.9688 197.312 67.9688V69.9688C198.196 69.9688 199.052 69.9025 199.879 69.7684L199.559 67.7941ZM197.312 67.9688C194.47 67.9688 192.048 67.3932 190.011 66.279L189.051 68.0335C191.432 69.336 194.196 69.9688 197.312 69.9688V67.9688ZM190.008 66.2774C187.958 65.1642 186.25 63.6431 184.879 61.7039L183.246 62.8586C184.791 65.0444 186.73 66.7733 189.054 68.0351L190.008 66.2774ZM184.886 61.7133C183.523 59.7391 182.495 57.4234 181.813 54.7523L179.875 55.2477C180.609 58.1183 181.727 60.6568 183.239 62.8492L184.886 61.7133ZM181.813 54.7541C181.127 52.0503 180.781 49.1544 180.781 46.0625H178.781C178.781 49.304 179.144 52.3664 179.874 55.2459L181.813 54.7541ZM180.781 46.0625C180.781 43.792 180.994 41.6084 181.418 39.5104L179.457 39.1146C179.006 41.3499 178.781 43.6664 178.781 46.0625H180.781ZM181.418 39.5104C181.844 37.4006 182.43 35.4414 183.175 33.6302L181.325 32.8698C180.528 34.8086 179.906 36.8911 179.457 39.1146L181.418 39.5104ZM183.175 33.6302C183.92 31.8187 184.812 30.1765 185.849 28.6999L184.213 27.5501C183.084 29.1569 182.122 30.9313 181.325 32.8698L183.175 33.6302ZM185.849 28.6999C186.889 27.2212 188.019 25.9751 189.236 24.9537L187.951 23.4213C186.586 24.5666 185.341 25.9455 184.213 27.5501L185.849 28.6999ZM189.238 24.9527C190.478 23.9088 191.777 23.1106 193.133 22.5489L192.367 20.7011C190.806 21.3478 189.334 22.2579 187.95 23.4223L189.238 24.9527ZM193.128 22.5508C194.49 21.9945 195.883 21.7188 197.312 21.7188V19.7188C195.617 19.7188 193.968 20.0472 192.372 20.6992L193.128 22.5508ZM197.312 21.7188C199.765 21.7188 201.971 22.3197 203.953 23.513L204.984 21.7995C202.675 20.4095 200.11 19.7188 197.312 19.7188V21.7188ZM203.963 23.5188C205.988 24.7069 207.725 26.3684 209.169 28.5252L210.831 27.4123C209.234 25.0274 207.283 23.1473 204.975 21.7937L203.963 23.5188ZM209.173 28.5304C210.643 30.6957 211.788 33.2676 212.597 36.2609L214.528 35.7391C213.67 32.5657 212.441 29.7835 210.827 27.4071L209.173 28.5304ZM212.599 36.267C213.426 39.2527 213.844 42.516 213.844 46.0625H215.844C215.844 42.359 215.407 38.914 214.526 35.733L212.599 36.267ZM203.062 43.375C203.062 41.76 202.933 40.2589 202.67 38.8754L200.705 39.2496C200.942 40.4911 201.062 41.865 201.062 43.375H203.062ZM202.67 38.8782C202.409 37.4867 202.045 36.2594 201.566 35.2097L199.747 36.0403C200.142 36.9073 200.466 37.9716 200.705 39.2468L202.67 38.8782ZM201.576 35.2334C201.122 34.1663 200.551 33.2747 199.837 32.611L198.476 34.0765C198.928 34.4961 199.357 35.1254 199.736 36.0166L201.576 35.2334ZM199.85 32.6239C199.13 31.9297 198.279 31.5 197.312 31.5V33.5C197.638 33.5 198.015 33.6328 198.462 34.0636L199.85 32.6239ZM197.312 31.5C196.29 31.5 195.441 32.0563 194.767 32.8551L196.296 34.1449C196.747 33.6103 197.085 33.5 197.312 33.5V31.5ZM194.777 32.8432C194.126 33.5904 193.576 34.5336 193.109 35.644L194.953 36.4185C195.362 35.4456 195.811 34.7013 196.285 34.1568L194.777 32.8432ZM193.103 35.6599C192.659 36.7692 192.309 37.9979 192.049 39.3412L194.013 39.7213C194.253 38.4813 194.57 37.3767 194.96 36.4026L193.103 35.6599ZM192.049 39.3412C191.788 40.6933 191.656 42.0382 191.656 43.375H193.656C193.656 42.1701 193.775 40.9525 194.013 39.7213L192.049 39.3412ZM191.656 43.375C191.656 44.6603 191.765 45.8712 191.987 47.0049L193.95 46.6201C193.756 45.6288 193.656 44.5481 193.656 43.375H191.656ZM191.992 47.0274C192.236 48.1346 192.574 49.1254 193.017 49.9881L194.796 49.0744C194.447 48.3954 194.16 47.5738 193.945 46.5976L191.992 47.0274ZM193.017 49.9881C193.464 50.8583 194.024 51.5895 194.712 52.1502L195.975 50.5998C195.539 50.2439 195.141 49.7459 194.796 49.0744L193.017 49.9881ZM194.744 52.175C195.5 52.7423 196.367 53.0312 197.312 53.0312V51.0312C196.8 51.0312 196.354 50.8827 195.944 50.575L194.744 52.175ZM197.312 53.0312C198.244 53.0312 199.099 52.7382 199.85 52.175L198.65 50.575C198.234 50.8868 197.798 51.0312 197.312 51.0312V53.0312ZM199.854 52.1717C200.594 51.6107 201.185 50.8731 201.64 49.9881L199.86 49.0744C199.523 49.7311 199.115 50.2226 198.646 50.5783L199.854 52.1717ZM201.63 50.0068C202.099 49.1385 202.45 48.141 202.695 47.0274L200.742 46.5976C200.529 47.5673 200.234 48.3823 199.87 49.0557L201.63 50.0068ZM202.696 47.0233C202.942 45.8832 203.062 44.666 203.062 43.375H201.062C201.062 44.5423 200.954 45.6168 200.741 46.6017L202.696 47.0233Z" fill="white"/>
<defs>
<filter id="filter0_d" x="0" y="0" width="322" height="110" filterUnits="userSpaceOnUse" color-interpolation-filters="sRGB">
<feFlood flood-opacity="0" result="BackgroundImageFix"/>
<feColorMatrix in="SourceAlpha" type="matrix" values="0 0 0 0 0 0 0 0 0 0 0 0 0 0 0 0 0 0 127 0"/>
<feOffset dy="10"/>
<feGaussianBlur stdDeviation="5"/>
<feColorMatrix type="matrix" values="0 0 0 0 0 0 0 0 0 0 0 0 0 0 0 0 0 0 0.5 0"/>
<feBlend mode="normal" in2="BackgroundImageFix" result="effect1_dropShadow"/>
<feBlend mode="normal" in="SourceGraphic" in2="effect1_dropShadow" result="shape"/>
</filter>
</defs>
</svg>
